RedHatTextVF-BoldItalic.ufo
<glyph name="quotesingle" format="2">
  <advance width="286"/>
  <unicode hex="0027"/>
  <outline>
    <contour>
      <point x="116" y="440" type="line"/>
      <point x="227" y="440" type="line"/>
      <point x="311" y="750" type="line"/>
      <point x="165" y="750" type="line"/>
    </contour>
  </outline>
</glyph>
<glyph name="parenleft" format="2">
  <advance width="422"/>
  <unicode hex="0028"/>
  <outline>
    <contour>
      <point x="206" y="-221" type="curve"/>
      <point x="309" y="-130" type="line"/>
      <point x="229" y="-58"/>
      <point x="188" y="38"/>
      <point x="188" y="151" type="curve" smooth="yes"/>
      <point x="188" y="345"/>
      <point x="292" y="516"/>
      <point x="465" y="605" type="curve"/>
      <point x="402" y="711" type="line"/>
      <point x="186" y="607"/>
      <point x="48" y="383"/>
      <point x="48" y="135" type="curve" smooth="yes"/>
      <point x="48" y="-13"/>
      <point x="103" y="-137"/>
    </contour>
  </outline>
</glyph>
<glyph name="asterisk" format="2">
  <advance width="483"/>
  <unicode hex="002A"/>
  <outline>
    <contour>
      <point x="204" y="307" type="line"/>
      <point x="300" y="307" type="line"/>
      <point x="320" y="411" type="line"/>
      <point x="397" y="344" type="line"/>
      <point x="467" y="425" type="line"/>
      <point x="382" y="494" type="line"/>
      <point x="500" y="554" type="line"/>
      <point x="463" y="644" type="line"/>
      <point x="357" y="587" type="line"/>
      <point x="382" y="700" type="line"/>
      <point x="287" y="700" type="line"/>
      <point x="265" y="592" type="line"/>
      <point x="185" y="661" type="line"/>
      <point x="117" y="582" type="line"/>
      <point x="206" y="509" type="line"/>
      <point x="92" y="453" type="line"/>
      <point x="126" y="361" type="line"/>
      <point x="228" y="415" type="line"/>
    </contour>
  </outline>
</glyph>
<glyph name="plus" format="2">
  <advance width="600"/>
  <unicode hex="002B"/>
  <outline>
    <contour>
      <point x="215" y="123" type="line"/>
      <point x="334" y="123" type="line"/>
      <point x="370" y="295" type="line"/>
      <point x="536" y="295" type="line"/>
      <point x="562" y="419" type="line"/>
      <point x="397" y="419" type="line"/>
      <point x="434" y="591" type="line"/>
      <point x="315" y="591" type="line"/>
      <point x="278" y="419" type="line"/>
      <point x="112" y="419" type="line"/>
      <point x="86" y="295" type="line"/>
      <point x="251" y="295" type="line"/>
    </contour>
  </outline>
</glyph>
<glyph name="comma" format="2">
  <advance width="250"/>
  <unicode hex="002C"/>
  <outline>
    <contour>
      <point x="-98" y="-177" type="line"/>
      <point x="16" y="-177" type="line"/>
      <point x="191" y="127" type="line"/>
      <point x="36" y="127" type="line"/>
    </contour>
  </outline>
</glyph>
<glyph name="period" format="2">
  <advance width="250"/>
  <unicode hex="002E"/>
  <outline>
    <contour>
      <point x="77" y="-11" type="curve" smooth="yes"/>
      <point x="129" y="-11"/>
      <point x="176" y="39"/>
      <point x="176" y="95" type="curve" smooth="yes"/>
      <point x="176" y="142"/>
      <point x="143" y="178"/>
      <point x="99" y="178" type="curve" smooth="yes"/>
      <point x="44" y="178"/>
      <point x="-3" y="130"/>
      <point x="-3" y="72" type="curve" smooth="yes"/>
      <point x="-3" y="25"/>
      <point x="31" y="-11"/>
    </contour>
  </outline>
</glyph>
<glyph name="question" format="2">
  <advance width="526"/>
  <unicode hex="003F"/>
  <outline>
    <contour>
      <point x="194" y="-11" type="curve" smooth="yes"/>
      <point x="246" y="-11"/>
      <point x="292" y="37"/>
      <point x="292" y="91" type="curve" smooth="yes"/>
      <point x="292" y="136"/>
      <point x="260" y="170"/>
      <point x="216" y="170" type="curve" smooth="yes"/>
      <point x="162" y="170"/>
      <point x="116" y="124"/>
      <point x="116" y="68" type="curve" smooth="yes"/>
      <point x="116" y="23"/>
      <point x="149" y="-11"/>
    </contour>
    <contour>
      <point x="168" y="230" type="curve"/>
      <point x="295" y="230" type="line"/>
      <point x="303" y="270"/>
      <point x="318" y="289"/>
      <point x="362" y="313" type="curve" smooth="yes"/>
      <point x="389" y="329" type="line" smooth="yes"/>
      <point x="502" y="396"/>
      <point x="548" y="457"/>
      <point x="548" y="539" type="curve" smooth="yes"/>
      <point x="548" y="640"/>
      <point x="461" y="710"/>
      <point x="336" y="710" type="curve" smooth="yes"/>
      <point x="231" y="710"/>
      <point x="132" y="651"/>
      <point x="78" y="554" type="curve"/>
      <point x="189" y="499" type="line"/>
      <point x="215" y="545"/>
      <point x="264" y="575"/>
      <point x="315" y="575" type="curve" smooth="yes"/>
      <point x="365" y="575"/>
      <point x="396" y="552"/>
      <point x="396" y="515" type="curve"/>
      <point x="396" y="489"/>
      <point x="375" y="462"/>
      <point x="335" y="437" type="curve" smooth="yes"/>
      <point x="276" y="399" type="line" smooth="yes"/>
      <point x="209" y="358"/>
      <point x="183" y="316"/>
    </contour>
  </outline>
</glyph>
<glyph name="at" format="2">
  <advance width="807"/>
  <unicode hex="0040"/>
  <outline>
    <contour>
      <point x="416" y="-144" type="curve" smooth="yes"/>
      <point x="482" y="-144"/>
      <point x="541" y="-130"/>
      <point x="606" y="-101" type="curve"/>
      <point x="576" y="-36" type="line"/>
      <point x="528" y="-58"/>
      <point x="475" y="-69"/>
      <point x="415" y="-69" type="curve" smooth="yes"/>
      <point x="239" y="-69"/>
      <point x="120" y="45"/>
      <point x="120" y="215" type="curve" smooth="yes"/>
      <point x="120" y="386"/>
      <point x="248" y="517"/>
      <point x="415" y="517" type="curve"/>
      <point x="565" y="517"/>
      <point x="677" y="412"/>
      <point x="677" y="273" type="curve" smooth="yes"/>
      <point x="677" y="183"/>
      <point x="638" y="123"/>
      <point x="580" y="123" type="curve" smooth="yes"/>
      <point x="552" y="123"/>
      <point x="538" y="138"/>
      <point x="544" y="166" type="curve" smooth="yes"/>
      <point x="589" y="377" type="line"/>
      <point x="477" y="377" type="line"/>
      <point x="474" y="360" type="line"/>
      <point x="450" y="379"/>
      <point x="419" y="390"/>
      <point x="385" y="390" type="curve" smooth="yes"/>
      <point x="283" y="390"/>
      <point x="204" y="308"/>
      <point x="204" y="203" type="curve" smooth="yes"/>
      <point x="204" y="116"/>
      <point x="268" y="46"/>
      <point x="350" y="46" type="curve" smooth="yes"/>
      <point x="387" y="46"/>
      <point x="425" y="60"/>
      <point x="454" y="85" type="curve"/>
      <point x="474" y="58"/>
      <point x="511" y="44"/>
      <point x="562" y="44" type="curve" smooth="yes"/>
      <point x="679" y="44"/>
      <point x="759" y="141"/>
      <point x="759" y="281" type="curve" smooth="yes"/>
      <point x="759" y="451"/>
      <point x="610" y="584"/>
      <point x="418" y="584" type="curve"/>
      <point x="201" y="584"/>
      <point x="41" y="424"/>
      <point x="41" y="207" type="curve" smooth="yes"/>
      <point x="41" y="4"/>
      <point x="198" y="-144"/>
    </contour>
    <contour>
      <point x="378" y="137" type="curve" smooth="yes"/>
      <point x="339" y="137"/>
      <point x="311" y="169"/>
      <point x="311" y="213" type="curve" smooth="yes"/>
      <point x="311" y="259"/>
      <point x="347" y="295"/>
      <point x="391" y="295" type="curve" smooth="yes"/>
      <point x="419" y="295"/>
      <point x="440" y="286"/>
      <point x="454" y="266" type="curve"/>
      <point x="438" y="183" type="line" smooth="yes"/>
      <point x="436" y="174"/>
      <point x="435" y="166"/>
      <point x="435" y="158" type="curve"/>
      <point x="417" y="143"/>
      <point x="398" y="137"/>
    </contour>
  </outline>
</glyph>
<glyph name="A" format="2">
  <advance width="727"/>
  <unicode hex="0041"/>
  <anchor x="447" y="700" name="top"/>
  <anchor x="669" y="0" name="bottom"/>
  <outline>
    <contour>
      <point x="-54" y="0" type="line"/>
      <point x="130" y="0" type="line"/>
      <point x="221" y="167" type="line"/>
      <point x="472" y="167" type="line"/>
      <point x="495" y="0" type="line"/>
      <point x="669" y="0" type="line"/>
      <point x="551" y="700" type="line"/>
      <point x="359" y="700" type="line"/>
    </contour>
    <contour>
      <point x="294" y="300" type="line"/>
      <point x="421" y="532" type="line"/>
      <point x="453" y="300" type="line"/>
    </contour>
  </outline>
</glyph>
<glyph name="C" format="2">
  <advance width="711"/>
  <unicode hex="0043"/>
  <anchor x="446" y="700" name="top"/>
  <anchor x="369" y="0" name="bottom"/>
  <outline>
    <contour>
      <point x="395" y="-10" type="curve" smooth="yes"/>
      <point x="495" y="-10"/>
      <point x="601" y="37"/>
      <point x="672" y="113" type="curve"/>
      <point x="579" y="224" type="line"/>
      <point x="529" y="170"/>
      <point x="474" y="143"/>
      <point x="416" y="143" type="curve" smooth="yes"/>
      <point x="313" y="143"/>
      <point x="236" y="223"/>
      <point x="236" y="332" type="curve" smooth="yes"/>
      <point x="236" y="456"/>
      <point x="325" y="557"/>
      <point x="436" y="557" type="curve" smooth="yes"/>
      <point x="505" y="557"/>
      <point x="560" y="523"/>
      <point x="594" y="457" type="curve"/>
      <point x="725" y="563" type="line"/>
      <point x="669" y="658"/>
      <point x="571" y="709"/>
      <point x="445" y="709" type="curve" smooth="yes"/>
      <point x="234" y="709"/>
      <point x="62" y="536"/>
      <point x="62" y="323" type="curve" smooth="yes"/>
      <point x="62" y="136"/>
      <point x="208" y="-10"/>
    </contour>
  </outline>
</glyph>
<glyph name="E" format="2">
  <advance width="657"/>
  <unicode hex="0045"/>
  <anchor x="425" y="700" name="top"/>
  <anchor x="543" y="0" name="bottom"/>
  <outline>
    <contour>
      <point x="21" y="0" type="line"/>
      <point x="543" y="0" type="line"/>
      <point x="575" y="144" type="line"/>
      <point x="220" y="144" type="line"/>
      <point x="249" y="283" type="line"/>
      <point x="496" y="283" type="line"/>
      <point x="526" y="423" type="line"/>
      <point x="279" y="423" type="line"/>
      <point x="307" y="556" type="line"/>
      <point x="656" y="556" type="line"/>
      <point x="688" y="700" type="line"/>
      <point x="170" y="700" type="line"/>
    </contour>
  </outline>
</glyph>
<glyph name="G" format="2">
  <advance width="790"/>
  <unicode hex="0047"/>
  <anchor x="450" y="701" name="top"/>
  <anchor x="397" y="0" name="bottom"/>
  <outline>
    <contour>
      <point x="386" y="-11" type="curve" smooth="yes"/>
      <point x="566" y="-11"/>
      <point x="717" y="127"/>
      <point x="759" y="329" type="curve" smooth="yes"/>
      <point x="774" y="402" type="line"/>
      <point x="425" y="402" type="line"/>
      <point x="393" y="258" type="line"/>
      <point x="565" y="258" type="line"/>
      <point x="541" y="187"/>
      <point x="476" y="140"/>
      <point x="403" y="140" type="curve" smooth="yes"/>
      <point x="304" y="140"/>
      <point x="234" y="215"/>
      <point x="234" y="322" type="curve" smooth="yes"/>
      <point x="234" y="453"/>
      <point x="325" y="558"/>
      <point x="439" y="558" type="curve" smooth="yes"/>
      <point x="513" y="558"/>
      <point x="574" y="521"/>
      <point x="606" y="458" type="curve"/>
      <point x="738" y="564" type="line"/>
      <point x="685" y="655"/>
      <point x="576" y="711"/>
      <point x="453" y="711" type="curve" smooth="yes"/>
      <point x="240" y="711"/>
      <point x="59" y="528"/>
      <point x="59" y="311" type="curve" smooth="yes"/>
      <point x="59" y="126"/>
      <point x="198" y="-11"/>
    </contour>
  </outline>
</glyph>
<glyph name="I" format="2">
  <advance width="302"/>
  <unicode hex="0049"/>
  <anchor x="244" y="700" name="top"/>
  <anchor x="179" y="0" name="bottom"/>
  <outline>
    <contour>
      <point x="11" y="0" type="line"/>
      <point x="179" y="0" type="line"/>
      <point x="328" y="700" type="line"/>
      <point x="160" y="700" type="line"/>
    </contour>
  </outline>
</glyph>
<glyph name="J" format="2">
  <advance width="657"/>
  <unicode hex="004A"/>
  <guideline x="602" y="700" angle="0.0" color="0.999,0.001,0.001,0.999" identifier="Bb52Jfv7jg"/>
  <anchor x="603" y="700" name="top"/>
  <outline>
    <contour>
      <point x="292" y="-9" type="curve" smooth="yes"/>
      <point x="440" y="-9"/>
      <point x="557" y="90"/>
      <point x="590" y="244" type="curve" smooth="yes"/>
      <point x="688" y="700" type="line"/>
      <point x="517" y="700" type="line"/>
      <point x="428" y="275" type="line" smooth="yes"/>
      <point x="411" y="194"/>
      <point x="355" y="141"/>
      <point x="288" y="141" type="curve" smooth="yes"/>
      <point x="224" y="141"/>
      <point x="189" y="183"/>
      <point x="182" y="267" type="curve"/>
      <point x="24" y="215" type="line"/>
      <point x="41" y="72"/>
      <point x="138" y="-9"/>
    </contour>
  </outline>
</glyph>
<glyph name="K" format="2">
  <advance width="723"/>
  <unicode hex="004B"/>
  <anchor x="314" y="0" name="bottom"/>
  <outline>
    <contour>
      <point x="21" y="0" type="line"/>
      <point x="189" y="0" type="line"/>
      <point x="258" y="323" type="line"/>
      <point x="448" y="0" type="line"/>
      <point x="657" y="0" type="line"/>
      <point x="423" y="364" type="line"/>
      <point x="801" y="700" type="line"/>
      <point x="586" y="700" type="line"/>
      <point x="276" y="407" type="line"/>
      <point x="338" y="700" type="line"/>
      <point x="170" y="700" type="line"/>
    </contour>
  </outline>
</glyph>
<glyph name="P" format="2">
  <advance width="696"/>
  <unicode hex="0050"/>
  <outline>
    <contour>
      <point x="21" y="0" type="line"/>
      <point x="189" y="0" type="line"/>
      <point x="241" y="244" type="line"/>
      <point x="425" y="244" type="line" smooth="yes"/>
      <point x="580" y="244"/>
      <point x="699" y="350"/>
      <point x="699" y="489" type="curve" smooth="yes"/>
      <point x="699" y="617"/>
      <point x="608" y="700"/>
      <point x="469" y="700" type="curve" smooth="yes"/>
      <point x="170" y="700" type="line"/>
    </contour>
    <contour>
      <point x="270" y="381" type="line"/>
      <point x="308" y="558" type="line"/>
      <point x="429" y="558" type="line" smooth="yes"/>
      <point x="491" y="558"/>
      <point x="527" y="528"/>
      <point x="527" y="477" type="curve" smooth="yes"/>
      <point x="527" y="419"/>
      <point x="481" y="381"/>
      <point x="411" y="381" type="curve" smooth="yes"/>
    </contour>
  </outline>
</glyph>
<glyph name="Q" format="2">
  <advance width="797"/>
  <unicode hex="0051"/>
  <outline>
    <contour>
      <point x="544" y="-46" type="line"/>
      <point x="685" y="-24" type="line"/>
      <point x="628" y="74" type="line"/>
      <point x="715" y="146"/>
      <point x="772" y="256"/>
      <point x="772" y="380" type="curve" smooth="yes"/>
      <point x="772" y="570"/>
      <point x="632" y="711"/>
      <point x="444" y="711" type="curve" smooth="yes"/>
      <point x="235" y="711"/>
      <point x="63" y="535"/>
      <point x="63" y="320" type="curve" smooth="yes"/>
      <point x="63" y="130"/>
      <point x="204" y="-11"/>
      <point x="392" y="-11" type="curve" smooth="yes"/>
      <point x="434" y="-11"/>
      <point x="474" y="-4"/>
      <point x="511" y="9" type="curve"/>
    </contour>
    <contour>
      <point x="403" y="142" type="curve" smooth="yes"/>
      <point x="307" y="142"/>
      <point x="237" y="221"/>
      <point x="237" y="331" type="curve" smooth="yes"/>
      <point x="237" y="457"/>
      <point x="324" y="558"/>
      <point x="433" y="558" type="curve" smooth="yes"/>
      <point x="529" y="558"/>
      <point x="599" y="479"/>
      <point x="599" y="369" type="curve" smooth="yes"/>
      <point x="599" y="310"/>
      <point x="580" y="256"/>
      <point x="548" y="216" type="curve"/>
      <point x="516" y="272" type="line"/>
      <point x="376" y="250" type="line"/>
      <point x="435" y="145" type="line"/>
      <point x="425" y="143"/>
      <point x="414" y="142"/>
    </contour>
  </outline>
</glyph>
<glyph name="S" format="2">
  <advance width="642"/>
  <unicode hex="0053"/>
  <note>
Version created Fri Aug  3 17:49:29 2018
</note>
  <anchor x="352" y="700" name="top"/>
  <anchor x="302" y="0" name="bottom"/>
  <outline>
    <contour>
      <point x="320" y="-10" type="curve" smooth="yes"/>
      <point x="489" y="-10"/>
      <point x="606" y="87"/>
      <point x="606" y="228" type="curve" smooth="yes"/>
      <point x="606" y="319"/>
      <point x="547" y="382"/>
      <point x="437" y="410" type="curve" smooth="yes"/>
      <point x="305" y="443" type="line" smooth="yes"/>
      <point x="255" y="457"/>
      <point x="234" y="475"/>
      <point x="234" y="504" type="curve" smooth="yes"/>
      <point x="234" y="545"/>
      <point x="271" y="571"/>
      <point x="328" y="571" type="curve" smooth="yes"/>
      <point x="409" y="571"/>
      <point x="478" y="541"/>
      <point x="540" y="479" type="curve"/>
      <point x="642" y="597" type="line"/>
      <point x="570" y="669"/>
      <point x="460" y="710"/>
      <point x="340" y="710" type="curve" smooth="yes"/>
      <point x="177" y="710"/>
      <point x="73" y="622"/>
      <point x="73" y="482" type="curve" smooth="yes"/>
      <point x="73" y="398"/>
      <point x="124" y="337"/>
      <point x="217" y="310" type="curve" smooth="yes"/>
      <point x="358" y="273" type="line" smooth="yes"/>
      <point x="418" y="255"/>
      <point x="438" y="238"/>
      <point x="438" y="205" type="curve" smooth="yes"/>
      <point x="438" y="159"/>
      <point x="396" y="128"/>
      <point x="333" y="128" type="curve" smooth="yes"/>
      <point x="260" y="128"/>
      <point x="194" y="160"/>
      <point x="105" y="238" type="curve"/>
      <point x="3" y="118" type="line"/>
      <point x="95" y="30"/>
      <point x="195" y="-10"/>
    </contour>
  </outline>
</glyph>
<glyph name="T" format="2">
  <advance width="652"/>
  <unicode hex="0054"/>
  <anchor x="419" y="700" name="top"/>
  <anchor x="270" y="0" name="bottom"/>
  <outline>
    <contour>
      <point x="186" y="0" type="line"/>
      <point x="355" y="0" type="line"/>
      <point x="473" y="553" type="line"/>
      <point x="691" y="553" type="line"/>
      <point x="724" y="700" type="line"/>
      <point x="114" y="700" type="line"/>
      <point x="81" y="553" type="line"/>
      <point x="304" y="553" type="line"/>
    </contour>
  </outline>
</glyph>
<glyph name="W" format="2">
  <advance width="964"/>
  <unicode hex="0057"/>
  <guideline x="572" y="700" angle="0.0" color="0.999,0.001,0.001,0.999" identifier="r7qwBTk1Cp"/>
  <anchor x="573" y="700" name="top"/>
  <outline>
    <contour>
      <point x="127" y="0" type="line"/>
      <point x="305" y="0" type="line"/>
      <point x="521" y="452" type="line"/>
      <point x="547" y="0" type="line"/>
      <point x="726" y="0" type="line"/>
      <point x="1027" y="700" type="line"/>
      <point x="854" y="700" type="line"/>
      <point x="679" y="267" type="line"/>
      <point x="651" y="700" type="line"/>
      <point x="493" y="700" type="line"/>
      <point x="282" y="265" type="line"/>
      <point x="290" y="700" type="line"/>
      <point x="123" y="700" type="line"/>
    </contour>
  </outline>
</glyph>
<glyph name="Z" format="2">
  <advance width="610"/>
  <unicode hex="005A"/>
  <anchor x="375" y="700" name="top"/>
  <outline>
    <contour>
      <point x="-27" y="0" type="line"/>
      <point x="531" y="0" type="line"/>
      <point x="563" y="144" type="line"/>
      <point x="231" y="141" type="line"/>
      <point x="652" y="588" type="line"/>
      <point x="677" y="700" type="line"/>
      <point x="124" y="700" type="line"/>
      <point x="92" y="556" type="line"/>
      <point x="419" y="559" type="line"/>
      <point x="-2" y="112" type="line"/>
    </contour>
  </outline>
</glyph>
<glyph name="bracketleft" format="2">
  <advance width="414"/>
  <unicode hex="005B"/>
  <outline>
    <contour>
      <point x="-35" y="-215" type="line"/>
      <point x="262" y="-215" type="line"/>
      <point x="289" y="-89" type="line"/>
      <point x="135" y="-89" type="line"/>
      <point x="276" y="574" type="line"/>
      <point x="430" y="574" type="line"/>
      <point x="457" y="700" type="line"/>
      <point x="160" y="700" type="line"/>
    </contour>
  </outline>
</glyph>
<glyph name="asciicircum" format="2">
  <advance width="600"/>
  <unicode hex="005E"/>
  <outline>
    <contour>
      <point x="82" y="350" type="line"/>
      <point x="209" y="350" type="line"/>
      <point x="374" y="584" type="line"/>
      <point x="439" y="350" type="line"/>
      <point x="562" y="350" type="line"/>
      <point x="463" y="700" type="line"/>
      <point x="331" y="700" type="line"/>
    </contour>
  </outline>
</glyph>
<glyph name="underscore" format="2">
  <advance width="463"/>
  <unicode hex="005F"/>
  <outline>
    <contour>
      <point x="-98" y="-191" type="line"/>
      <point x="368" y="-191" type="line"/>
      <point x="392" y="-80" type="line"/>
      <point x="-74" y="-80" type="line"/>
    </contour>
  </outline>
</glyph>
<glyph name="grave" format="2">
  <advance width="600"/>
  <unicode hex="0060"/>
  <outline>
    <contour>
      <point x="328" y="601" type="line"/>
      <point x="469" y="601" type="line"/>
      <point x="333" y="747" type="line"/>
      <point x="139" y="747" type="line"/>
    </contour>
  </outline>
</glyph>
<glyph name="a" format="2">
  <advance width="570"/>
  <unicode hex="0061"/>
  <note>
Version created Mon Aug  6 16:22:34 2018
</note>
  <anchor x="314" y="516" name="top"/>
  <anchor x="455" y="0" name="bottom"/>
  <outline>
    <contour>
      <point x="177" y="-4" type="curve" smooth="yes"/>
      <point x="222" y="-4"/>
      <point x="258" y="9"/>
      <point x="308" y="44" type="curve"/>
      <point x="298" y="0" type="line"/>
      <point x="455" y="0" type="line"/>
      <point x="521" y="303" type="line" smooth="yes"/>
      <point x="551" y="440"/>
      <point x="469" y="523"/>
      <point x="305" y="523" type="curve" smooth="yes"/>
      <point x="244" y="523"/>
      <point x="176" y="509"/>
      <point x="95" y="480" type="curve"/>
      <point x="131" y="366" type="line"/>
      <point x="187" y="384"/>
      <point x="227" y="392"/>
      <point x="262" y="392" type="curve" smooth="yes"/>
      <point x="343" y="392"/>
      <point x="376" y="363"/>
      <point x="363" y="302" type="curve" smooth="yes"/>
      <point x="358" y="277" type="line"/>
      <point x="317" y="292"/>
      <point x="271" y="301"/>
      <point x="227" y="301" type="curve" smooth="yes"/>
      <point x="97" y="301"/>
      <point x="18" y="238"/>
      <point x="18" y="135" type="curve" smooth="yes"/>
      <point x="18" y="49"/>
      <point x="79" y="-4"/>
    </contour>
    <contour>
      <point x="241" y="100" type="curve" smooth="yes"/>
      <point x="191" y="100"/>
      <point x="163" y="118"/>
      <point x="163" y="148" type="curve" smooth="yes"/>
      <point x="163" y="185"/>
      <point x="193" y="206"/>
      <point x="248" y="206" type="curve" smooth="yes"/>
      <point x="281" y="206"/>
      <point x="314" y="202"/>
      <point x="340" y="195" type="curve"/>
      <point x="324" y="122" type="line"/>
      <point x="298" y="107"/>
      <point x="271" y="100"/>
    </contour>
  </outline>
</glyph>
<glyph name="c" format="2">
  <advance width="528"/>
  <unicode hex="0063"/>
  <anchor x="320" y="516" name="top"/>
  <anchor x="279" y="0" name="bottom"/>
  <outline>
    <contour>
      <point x="275" y="-11" type="curve" smooth="yes"/>
      <point x="351" y="-11"/>
      <point x="423" y="18"/>
      <point x="476" y="71" type="curve"/>
      <point x="398" y="172" type="line"/>
      <point x="370" y="143"/>
      <point x="338" y="129"/>
      <point x="300" y="129" type="curve" smooth="yes"/>
      <point x="236" y="129"/>
      <point x="196" y="171"/>
      <point x="196" y="240" type="curve" smooth="yes"/>
      <point x="196" y="322"/>
      <point x="250" y="387"/>
      <point x="318" y="387" type="curve" smooth="yes"/>
      <point x="366" y="387"/>
      <point x="400" y="367"/>
      <point x="424" y="324" type="curve"/>
      <point x="536" y="416" type="line"/>
      <point x="492" y="486"/>
      <point x="413" y="526"/>
      <point x="321" y="526" type="curve" smooth="yes"/>
      <point x="163" y="526"/>
      <point x="38" y="394"/>
      <point x="38" y="226" type="curve" smooth="yes"/>
      <point x="38" y="89"/>
      <point x="138" y="-11"/>
    </contour>
  </outline>
</glyph>
<glyph name="e" format="2">
  <advance width="583"/>
  <unicode hex="0065"/>
  <anchor x="329" y="516" name="top"/>
  <anchor x="382" y="0" name="bottom"/>
  <outline>
    <contour>
      <point x="290" y="-11" type="curve" smooth="yes"/>
      <point x="365" y="-11"/>
      <point x="425" y="9"/>
      <point x="491" y="57" type="curve"/>
      <point x="404" y="155" type="line"/>
      <point x="380" y="130"/>
      <point x="346" y="117"/>
      <point x="307" y="117" type="curve" smooth="yes"/>
      <point x="245" y="117"/>
      <point x="200" y="157"/>
      <point x="191" y="217" type="curve"/>
      <point x="537" y="217" type="line"/>
      <point x="541" y="238"/>
      <point x="543" y="262"/>
      <point x="543" y="293" type="curve" smooth="yes"/>
      <point x="543" y="430"/>
      <point x="452" y="524"/>
      <point x="318" y="524" type="curve" smooth="yes"/>
      <point x="165" y="524"/>
      <point x="38" y="391"/>
      <point x="38" y="233" type="curve" smooth="yes"/>
      <point x="38" y="90"/>
      <point x="143" y="-11"/>
    </contour>
    <contour>
      <point x="201" y="308" type="line"/>
      <point x="220" y="362"/>
      <point x="260" y="397"/>
      <point x="309" y="397" type="curve" smooth="yes"/>
      <point x="360" y="397"/>
      <point x="395" y="363"/>
      <point x="403" y="308" type="curve"/>
    </contour>
  </outline>
</glyph>
<glyph name="g" format="2">
  <advance width="628"/>
  <unicode hex="0067"/>
  <note>
Version created Sun Jan 13 16:53:00 2019
</note>
  <anchor x="348" y="516" name="top"/>
  <outline>
    <contour>
      <point x="253" y="-219" type="curve" smooth="yes"/>
      <point x="392" y="-219"/>
      <point x="481" y="-153"/>
      <point x="507" y="-29" type="curve" smooth="yes"/>
      <point x="622" y="516" type="line"/>
      <point x="466" y="516" type="line"/>
      <point x="451" y="443" type="line"/>
      <point x="418" y="492"/>
      <point x="366" y="519"/>
      <point x="302" y="519" type="curve" smooth="yes"/>
      <point x="159" y="519"/>
      <point x="43" y="392"/>
      <point x="43" y="235" type="curve" smooth="yes"/>
      <point x="43" y="103"/>
      <point x="127" y="1"/>
      <point x="236" y="1" type="curve" smooth="yes"/>
      <point x="286" y="1"/>
      <point x="333" y="20"/>
      <point x="367" y="53" type="curve"/>
      <point x="354" y="-11" type="line" smooth="yes"/>
      <point x="343" y="-66"/>
      <point x="306" y="-94"/>
      <point x="246" y="-94" type="curve" smooth="yes"/>
      <point x="194" y="-94"/>
      <point x="135" y="-74"/>
      <point x="78" y="-36" type="curve"/>
      <point x="10" y="-147" type="line"/>
      <point x="76" y="-192"/>
      <point x="168" y="-219"/>
    </contour>
    <contour>
      <point x="306" y="132" type="curve" smooth="yes"/>
      <point x="243" y="132"/>
      <point x="199" y="180"/>
      <point x="199" y="248" type="curve" smooth="yes"/>
      <point x="199" y="327"/>
      <point x="254" y="385"/>
      <point x="327" y="385" type="curve" smooth="yes"/>
      <point x="367" y="385"/>
      <point x="404" y="369"/>
      <point x="427" y="343" type="curve"/>
      <point x="391" y="166" type="line"/>
      <point x="365" y="143"/>
      <point x="338" y="132"/>
    </contour>
  </outline>
</glyph>
<glyph name="h" format="2">
  <advance width="606"/>
  <unicode hex="0068"/>
  <anchor x="227" y="699" name="top"/>
  <outline>
    <contour>
      <point x="6" y="0" type="line"/>
      <point x="165" y="0" type="line"/>
      <point x="240" y="355" type="line"/>
      <point x="268" y="384"/>
      <point x="296" y="397"/>
      <point x="328" y="397" type="curve" smooth="yes"/>
      <point x="382" y="397"/>
      <point x="410" y="356"/>
      <point x="397" y="297" type="curve" smooth="yes"/>
      <point x="333" y="0" type="line"/>
      <point x="492" y="0" type="line"/>
      <point x="564" y="337" type="line" smooth="yes"/>
      <point x="588" y="447"/>
      <point x="533" y="522"/>
      <point x="429" y="522" type="curve" smooth="yes"/>
      <point x="364" y="522"/>
      <point x="305" y="491"/>
      <point x="256" y="432" type="curve"/>
      <point x="321" y="737" type="line"/>
      <point x="155" y="712" type="line"/>
    </contour>
  </outline>
</glyph>
<glyph name="i" format="2">
  <advance width="283"/>
  <unicode hex="0069"/>
  <anchor x="197" y="516" name="top"/>
  <anchor x="165" y="0" name="bottom"/>
  <outline>
    <contour>
      <point x="217" y="596" type="curve" smooth="yes"/>
      <point x="272" y="596"/>
      <point x="318" y="642"/>
      <point x="318" y="697" type="curve" smooth="yes"/>
      <point x="318" y="742"/>
      <point x="282" y="777"/>
      <point x="237" y="777" type="curve" smooth="yes"/>
      <point x="184" y="777"/>
      <point x="137" y="729"/>
      <point x="137" y="675" type="curve" smooth="yes"/>
      <point x="137" y="630"/>
      <point x="171" y="596"/>
    </contour>
    <contour>
      <point x="6" y="0" type="line"/>
      <point x="165" y="0" type="line"/>
      <point x="277" y="516" type="line"/>
      <point x="118" y="516" type="line"/>
    </contour>
  </outline>
</glyph>
<glyph name="k" format="2">
  <advance width="582"/>
  <unicode hex="006B"/>
  <anchor x="251" y="0" name="bottom"/>
  <outline>
    <contour>
      <point x="6" y="0" type="line"/>
      <point x="165" y="0" type="line"/>
      <point x="211" y="218" type="line"/>
      <point x="343" y="0" type="line"/>
      <point x="531" y="0" type="line"/>
      <point x="358" y="255" type="line"/>
      <point x="629" y="516" type="line"/>
      <point x="438" y="516" type="line"/>
      <point x="227" y="296" type="line"/>
      <point x="321" y="737" type="line"/>
      <point x="158" y="712" type="line"/>
    </contour>
  </outline>
</glyph>
<glyph name="l" format="2">
  <advance width="283"/>
  <unicode hex="006C"/>
  <anchor x="233" y="700" name="top"/>
  <anchor x="85" y="0" name="bottom"/>
  <outline>
    <contour>
      <point x="6" y="0" type="line"/>
      <point x="165" y="0" type="line"/>
      <point x="321" y="737" type="line"/>
      <point x="158" y="712" type="line"/>
    </contour>
  </outline>
</glyph>
<glyph name="v" format="2">
  <advance width="580"/>
  <unicode hex="0076"/>
  <outline>
    <contour>
      <point x="156" y="0" type="line"/>
      <point x="310" y="0" type="line"/>
      <point x="629" y="516" type="line"/>
      <point x="460" y="516" type="line"/>
      <point x="275" y="189" type="line"/>
      <point x="230" y="516" type="line"/>
      <point x="63" y="516" type="line"/>
    </contour>
  </outline>
</glyph>
<glyph name="w" format="2">
  <advance width="767"/>
  <unicode hex="0077"/>
  <anchor x="440" y="516" name="top"/>
  <outline>
    <contour>
      <point x="96" y="0" type="line"/>
      <point x="248" y="0" type="line"/>
      <point x="393" y="305" type="line"/>
      <point x="410" y="0" type="line"/>
      <point x="562" y="0" type="line"/>
      <point x="807" y="516" type="line"/>
      <point x="659" y="516" type="line"/>
      <point x="526" y="211" type="line"/>
      <point x="505" y="516" type="line"/>
      <point x="374" y="516" type="line"/>
      <point x="226" y="208" type="line"/>
      <point x="220" y="516" type="line"/>
      <point x="72" y="516" type="line"/>
    </contour>
  </outline>
</glyph>
<glyph name="x" format="2">
  <advance width="578"/>
  <unicode hex="0078"/>
  <outline>
    <contour>
      <point x="-46" y="0" type="line"/>
      <point x="136" y="0" type="line"/>
      <point x="266" y="144" type="line"/>
      <point x="336" y="0" type="line"/>
      <point x="513" y="0" type="line"/>
      <point x="377" y="259" type="line"/>
      <point x="621" y="516" type="line"/>
      <point x="438" y="516" type="line"/>
      <point x="317" y="380" type="line"/>
      <point x="251" y="516" type="line"/>
      <point x="74" y="516" type="line"/>
      <point x="205" y="266" type="line"/>
    </contour>
  </outline>
</glyph>
<glyph name="exclamdown" format="2">
  <advance width="268"/>
  <unicode hex="00A1"/>
  <outline>
    <contour>
      <point x="193" y="264" type="line"/>
      <point x="78" y="264" type="line"/>
      <point x="-49" y="-236" type="line"/>
      <point x="104" y="-236" type="line"/>
    </contour>
    <contour>
      <point x="175" y="502" type="curve" smooth="yes"/>
      <point x="124" y="502"/>
      <point x="78" y="454"/>
      <point x="78" y="400" type="curve" smooth="yes"/>
      <point x="78" y="355"/>
      <point x="110" y="321"/>
      <point x="153" y="321" type="curve" smooth="yes"/>
      <point x="207" y="321"/>
      <point x="253" y="367"/>
      <point x="253" y="423" type="curve" smooth="yes"/>
      <point x="253" y="468"/>
      <point x="220" y="502"/>
    </contour>
  </outline>
</glyph>
<glyph name="yen" format="2">
  <advance width="724"/>
  <unicode hex="00A5"/>
  <outline>
    <contour>
      <point x="221" y="0" type="line"/>
      <point x="390" y="0" type="line"/>
      <point x="417" y="130" type="line"/>
      <point x="572" y="130" type="line"/>
      <point x="589" y="211" type="line"/>
      <point x="434" y="211" type="line"/>
      <point x="446" y="264" type="line"/>
      <point x="601" y="264" type="line"/>
      <point x="618" y="345" type="line"/>
      <point x="514" y="345" type="line"/>
      <point x="818" y="700" type="line"/>
      <point x="620" y="700" type="line"/>
      <point x="386" y="414" type="line"/>
      <point x="271" y="700" type="line"/>
      <point x="92" y="700" type="line"/>
      <point x="243" y="345" type="line"/>
      <point x="139" y="345" type="line"/>
      <point x="122" y="264" type="line"/>
      <point x="277" y="264" type="line"/>
      <point x="266" y="211" type="line"/>
      <point x="110" y="211" type="line"/>
      <point x="93" y="130" type="line"/>
      <point x="248" y="130" type="line"/>
    </contour>
  </outline>
</glyph>
<glyph name="uni00A6" format="2">
  <advance width="351"/>
  <unicode hex="00A6"/>
  <outline>
    <contour>
      <point x="109" y="288" type="line"/>
      <point x="250" y="288" type="line"/>
      <point x="339" y="700" type="line"/>
      <point x="198" y="700" type="line"/>
    </contour>
    <contour>
      <point x="4" y="-209" type="line"/>
      <point x="145" y="-209" type="line"/>
      <point x="233" y="203" type="line"/>
      <point x="92" y="203" type="line"/>
    </contour>
  </outline>
</glyph>
<glyph name="section" format="2">
  <advance width="573"/>
  <unicode hex="00A7"/>
  <outline>
    <contour>
      <point x="243" y="-51" type="curve" smooth="yes"/>
      <point x="356" y="-51"/>
      <point x="439" y="19"/>
      <point x="439" y="114" type="curve" smooth="yes"/>
      <point x="439" y="138"/>
      <point x="434" y="158"/>
      <point x="424" y="176" type="curve"/>
      <point x="499" y="198"/>
      <point x="545" y="254"/>
      <point x="545" y="330" type="curve" smooth="yes"/>
      <point x="545" y="386"/>
      <point x="513" y="424"/>
      <point x="429" y="469" type="curve" smooth="yes"/>
      <point x="337" y="518" type="line" smooth="yes"/>
      <point x="313" y="531"/>
      <point x="303" y="544"/>
      <point x="303" y="562" type="curve" smooth="yes"/>
      <point x="303" y="588"/>
      <point x="327" y="608"/>
      <point x="358" y="608" type="curve" smooth="yes"/>
      <point x="399" y="608"/>
      <point x="449" y="584"/>
      <point x="497" y="542" type="curve"/>
      <point x="575" y="629" type="line"/>
      <point x="514" y="682"/>
      <point x="439" y="711"/>
      <point x="360" y="711" type="curve" smooth="yes"/>
      <point x="248" y="711"/>
      <point x="166" y="641"/>
      <point x="166" y="546" type="curve" smooth="yes"/>
      <point x="166" y="523"/>
      <point x="171" y="502"/>
      <point x="180" y="484" type="curve"/>
      <point x="106" y="462"/>
      <point x="60" y="406"/>
      <point x="60" y="331" type="curve" smooth="yes"/>
      <point x="60" y="274"/>
      <point x="92" y="235"/>
      <point x="174" y="191" type="curve" smooth="yes"/>
      <point x="266" y="142" type="line" smooth="yes"/>
      <point x="290" y="128"/>
      <point x="300" y="116"/>
      <point x="300" y="98" type="curve" smooth="yes"/>
      <point x="300" y="72"/>
      <point x="276" y="52"/>
      <point x="245" y="52" type="curve" smooth="yes"/>
      <point x="204" y="52"/>
      <point x="155" y="75"/>
      <point x="105" y="118" type="curve"/>
      <point x="28" y="31" type="line"/>
      <point x="89" y="-22"/>
      <point x="164" y="-51"/>
    </contour>
    <contour>
      <point x="350" y="243" type="curve"/>
      <point x="231" y="302" type="line" smooth="yes"/>
      <point x="200" y="319"/>
      <point x="187" y="335"/>
      <point x="187" y="356" type="curve" smooth="yes"/>
      <point x="187" y="390"/>
      <point x="214" y="415"/>
      <point x="253" y="417" type="curve"/>
      <point x="372" y="358" type="line" smooth="yes"/>
      <point x="403" y="341"/>
      <point x="416" y="325"/>
      <point x="416" y="304" type="curve" smooth="yes"/>
      <point x="416" y="271"/>
      <point x="389" y="245"/>
    </contour>
  </outline>
</glyph>
<glyph name="ordfeminine" format="2">
  <advance width="441"/>
  <unicode hex="00AA"/>
  <outline>
    <contour>
      <point x="193" y="302" type="curve" smooth="yes"/>
      <point x="227" y="302"/>
      <point x="256" y="310"/>
      <point x="290" y="330" type="curve"/>
      <point x="285" y="306" type="line"/>
      <point x="408" y="306" type="line"/>
      <point x="458" y="539" type="line" smooth="yes"/>
      <point x="480" y="646"/>
      <point x="417" y="711"/>
      <point x="289" y="711" type="curve" smooth="yes"/>
      <point x="238" y="711"/>
      <point x="182" y="700"/>
      <point x="121" y="677" type="curve"/>
      <point x="151" y="583" type="line"/>
      <point x="202" y="600"/>
      <point x="234" y="607"/>
      <point x="260" y="607" type="curve" smooth="yes"/>
      <point x="319" y="607"/>
      <point x="344" y="585"/>
      <point x="335" y="539" type="curve" smooth="yes"/>
      <point x="333" y="528" type="line"/>
      <point x="300" y="539"/>
      <point x="265" y="545"/>
      <point x="233" y="545" type="curve" smooth="yes"/>
      <point x="127" y="545"/>
      <point x="63" y="496"/>
      <point x="63" y="413" type="curve" smooth="yes"/>
      <point x="63" y="345"/>
      <point x="113" y="302"/>
    </contour>
    <contour>
      <point x="243" y="389" type="curve" smooth="yes"/>
      <point x="203" y="389"/>
      <point x="181" y="401"/>
      <point x="181" y="423" type="curve" smooth="yes"/>
      <point x="181" y="450"/>
      <point x="204" y="464"/>
      <point x="246" y="464" type="curve" smooth="yes"/>
      <point x="267" y="464"/>
      <point x="293" y="460"/>
      <point x="317" y="453" type="curve"/>
      <point x="306" y="403" type="line"/>
      <point x="286" y="394"/>
      <point x="265" y="389"/>
    </contour>
  </outline>
</glyph>
<glyph name="degree" format="2">
  <advance width="407"/>
  <unicode hex="00B0"/>
  <outline>
    <contour>
      <point x="266" y="416" type="curve" smooth="yes"/>
      <point x="354" y="416"/>
      <point x="429" y="492"/>
      <point x="429" y="580" type="curve" smooth="yes"/>
      <point x="429" y="656"/>
      <point x="372" y="710"/>
      <point x="294" y="710" type="curve" smooth="yes"/>
      <point x="207" y="710"/>
      <point x="132" y="634"/>
      <point x="132" y="546" type="curve" smooth="yes"/>
      <point x="132" y="471"/>
      <point x="188" y="416"/>
    </contour>
    <contour>
      <point x="271" y="496" type="curve" smooth="yes"/>
      <point x="241" y="496"/>
      <point x="215" y="523"/>
      <point x="215" y="556" type="curve" smooth="yes"/>
      <point x="215" y="596"/>
      <point x="248" y="629"/>
      <point x="288" y="629" type="curve" smooth="yes"/>
      <point x="321" y="629"/>
      <point x="346" y="603"/>
      <point x="346" y="570" type="curve" smooth="yes"/>
      <point x="346" y="529"/>
      <point x="312" y="496"/>
    </contour>
  </outline>
</glyph>
<glyph name="plusminus" format="2">
  <advance width="600"/>
  <unicode hex="00B1"/>
  <outline>
    <contour>
      <point x="23" y="-1" type="line"/>
      <point x="473" y="-1" type="line"/>
      <point x="499" y="123" type="line"/>
      <point x="49" y="123" type="line"/>
    </contour>
    <contour>
      <point x="233" y="209" type="line"/>
      <point x="352" y="209" type="line"/>
      <point x="384" y="358" type="line"/>
      <point x="549" y="358" type="line"/>
      <point x="575" y="481" type="line"/>
      <point x="410" y="481" type="line"/>
      <point x="442" y="629" type="line"/>
      <point x="323" y="629" type="line"/>
      <point x="291" y="481" type="line"/>
      <point x="125" y="481" type="line"/>
      <point x="99" y="358" type="line"/>
      <point x="265" y="358" type="line"/>
    </contour>
  </outline>
</glyph>
<glyph name="acute" format="2">
  <advance width="600"/>
  <unicode hex="00B4"/>
  <anchor x="359" y="516" name="_top"/>
  <outline>
    <contour>
      <point x="284" y="601" type="line"/>
      <point x="428" y="601" type="line"/>
      <point x="645" y="747" type="line"/>
      <point x="451" y="747" type="line"/>
    </contour>
  </outline>
</glyph>
<glyph name="uni00B5" format="2">
  <advance width="608"/>
  <unicode hex="00B5"/>
  <outline>
    <contour>
      <point x="-39" y="-211" type="line"/>
      <point x="123" y="-211" type="line"/>
      <point x="167" y="-3" type="line"/>
      <point x="177" y="-5"/>
      <point x="188" y="-6"/>
      <point x="199" y="-6" type="curve" smooth="yes"/>
      <point x="262" y="-6"/>
      <point x="313" y="23"/>
      <point x="348" y="80" type="curve"/>
      <point x="331" y="0" type="line"/>
      <point x="490" y="0" type="line"/>
      <point x="602" y="516" type="line"/>
      <point x="443" y="516" type="line"/>
      <point x="365" y="158" type="line"/>
      <point x="338" y="131"/>
      <point x="311" y="119"/>
      <point x="280" y="119" type="curve" smooth="yes"/>
      <point x="226" y="119"/>
      <point x="198" y="160"/>
      <point x="211" y="219" type="curve" smooth="yes"/>
      <point x="275" y="516" type="line"/>
      <point x="116" y="516" type="line"/>
    </contour>
  </outline>
</glyph>
<glyph name="paragraph" format="2">
  <advance width="706"/>
  <unicode hex="00B6"/>
  <outline>
    <contour>
      <point x="252" y="0" type="line"/>
      <point x="374" y="0" type="line"/>
      <point x="425" y="238" type="line"/>
      <point x="506" y="238" type="line"/>
      <point x="455" y="0" type="line"/>
      <point x="576" y="0" type="line"/>
      <point x="725" y="700" type="line"/>
      <point x="351" y="700" type="line" smooth="yes"/>
      <point x="195" y="700"/>
      <point x="82" y="589"/>
      <point x="82" y="437" type="curve" smooth="yes"/>
      <point x="82" y="318"/>
      <point x="170" y="238"/>
      <point x="301" y="238" type="curve" smooth="yes"/>
      <point x="303" y="238" type="line"/>
    </contour>
    <contour>
      <point x="451" y="365" type="line"/>
      <point x="495" y="570" type="line"/>
      <point x="576" y="570" type="line"/>
      <point x="533" y="365" type="line"/>
    </contour>
    <contour>
      <point x="308" y="365" type="line" smooth="yes"/>
      <point x="251" y="365"/>
      <point x="214" y="400"/>
      <point x="214" y="456" type="curve" smooth="yes"/>
      <point x="214" y="521"/>
      <point x="263" y="570"/>
      <point x="329" y="570" type="curve" smooth="yes"/>
      <point x="373" y="570" type="line"/>
      <point x="329" y="365" type="line"/>
    </contour>
  </outline>
</glyph>
<glyph name="periodcentered" format="2">
  <advance width="250"/>
  <unicode hex="00B7"/>
  <outline>
    <contour>
      <point x="121" y="194" type="curve" smooth="yes"/>
      <point x="173" y="194"/>
      <point x="220" y="244"/>
      <point x="220" y="300" type="curve" smooth="yes"/>
      <point x="220" y="347"/>
      <point x="187" y="383"/>
      <point x="143" y="383" type="curve" smooth="yes"/>
      <point x="88" y="383"/>
      <point x="41" y="335"/>
      <point x="41" y="277" type="curve" smooth="yes"/>
      <point x="41" y="230"/>
      <point x="75" y="194"/>
    </contour>
  </outline>
</glyph>
<glyph name="onesuperior" format="2">
  <advance width="203"/>
  <unicode hex="00B9"/>
  <outline>
    <contour>
      <point x="112" y="350" type="line"/>
      <point x="204" y="350" type="line"/>
      <point x="279" y="700" type="line"/>
      <point x="221" y="700" type="line"/>
      <point x="105" y="655" type="line"/>
      <point x="87" y="574" type="line"/>
      <point x="166" y="604" type="line"/>
    </contour>
  </outline>
</glyph>
<glyph name="AE" format="2">
  <advance width="967"/>
  <unicode hex="00C6"/>
  <outline>
    <contour>
      <point x="-54" y="0" type="line"/>
      <point x="119" y="0" type="line"/>
      <point x="216" y="167" type="line"/>
      <point x="466" y="167" type="line"/>
      <point x="484" y="0" type="line"/>
      <point x="854" y="0" type="line"/>
      <point x="885" y="149" type="line"/>
      <point x="636" y="149" type="line"/>
      <point x="622" y="281" type="line"/>
      <point x="798" y="281" type="line"/>
      <point x="829" y="425" type="line"/>
      <point x="606" y="425" type="line"/>
      <point x="592" y="551" type="line"/>
      <point x="971" y="551" type="line"/>
      <point x="1002" y="700" type="line"/>
      <point x="361" y="700" type="line"/>
    </contour>
    <contour>
      <point x="293" y="300" type="line"/>
      <point x="428" y="532" type="line"/>
      <point x="452" y="300" type="line"/>
    </contour>
  </outline>
</glyph>
<glyph name="Ccedilla" format="2">
  <advance width="711"/>
  <unicode hex="00C7"/>
  <outline>
    <contour>
      <point x="325" y="-253" type="curve" smooth="yes"/>
      <point x="402" y="-253"/>
      <point x="463" y="-201"/>
      <point x="463" y="-136" type="curve" smooth="yes"/>
      <point x="463" y="-94"/>
      <point x="432" y="-66"/>
      <point x="378" y="-59" type="curve"/>
      <point x="400" y="-10" type="line"/>
      <point x="495" y="-10"/>
      <point x="601" y="37"/>
      <point x="672" y="113" type="curve"/>
      <point x="579" y="224" type="line"/>
      <point x="529" y="170"/>
      <point x="474" y="143"/>
      <point x="416" y="143" type="curve" smooth="yes"/>
      <point x="313" y="143"/>
      <point x="236" y="223"/>
      <point x="236" y="332" type="curve" smooth="yes"/>
      <point x="236" y="456"/>
      <point x="325" y="557"/>
      <point x="436" y="557" type="curve" smooth="yes"/>
      <point x="505" y="557"/>
      <point x="560" y="523"/>
      <point x="594" y="457" type="curve"/>
      <point x="725" y="563" type="line"/>
      <point x="669" y="658"/>
      <point x="571" y="709"/>
      <point x="445" y="709" type="curve" smooth="yes"/>
      <point x="234" y="709"/>
      <point x="62" y="536"/>
      <point x="62" y="323" type="curve" smooth="yes"/>
      <point x="62" y="159"/>
      <point x="175" y="26"/>
      <point x="329" y="-4" type="curve"/>
      <point x="284" y="-109" type="line"/>
      <point x="325" y="-109" type="line" smooth="yes"/>
      <point x="356" y="-109"/>
      <point x="376" y="-123"/>
      <point x="376" y="-144" type="curve" smooth="yes"/>
      <point x="376" y="-167"/>
      <point x="355" y="-182"/>
      <point x="323" y="-182" type="curve" smooth="yes"/>
      <point x="293" y="-182"/>
      <point x="265" y="-170"/>
      <point x="246" y="-150" type="curve"/>
      <point x="191" y="-205" type="line"/>
      <point x="221" y="-238"/>
      <point x="265" y="-253"/>
    </contour>
  </outline>
</glyph>
<glyph name="multiply" format="2">
  <advance width="600"/>
  <unicode hex="00D7"/>
  <outline>
    <contour>
      <point x="135" y="133" type="line"/>
      <point x="307" y="283" type="line"/>
      <point x="416" y="132" type="line"/>
      <point x="505" y="209" type="line"/>
      <point x="396" y="360" type="line"/>
      <point x="568" y="510" type="line"/>
      <point x="513" y="585" type="line"/>
      <point x="341" y="436" type="line"/>
      <point x="233" y="586" type="line"/>
      <point x="143" y="509" type="line"/>
      <point x="252" y="358" type="line"/>
      <point x="79" y="208" type="line"/>
    </contour>
  </outline>
</glyph>
<glyph name="germandbls" format="2">
  <advance width="669"/>
  <unicode hex="00DF"/>
  <outline>
    <contour>
      <point x="432" y="-13" type="curve" smooth="yes"/>
      <point x="548" y="-13"/>
      <point x="629" y="59"/>
      <point x="629" y="163" type="curve" smooth="yes"/>
      <point x="629" y="216"/>
      <point x="599" y="262"/>
      <point x="537" y="293" type="curve" smooth="yes"/>
      <point x="478" y="323" type="line" smooth="yes"/>
      <point x="462" y="331"/>
      <point x="454" y="340"/>
      <point x="454" y="352" type="curve" smooth="yes"/>
      <point x="454" y="405"/>
      <point x="619" y="403"/>
      <point x="619" y="554" type="curve" smooth="yes"/>
      <point x="619" y="659"/>
      <point x="517" y="737"/>
      <point x="383" y="737" type="curve" smooth="yes"/>
      <point x="233" y="737"/>
      <point x="139" y="655"/>
      <point x="113" y="533" type="curve" smooth="yes"/>
      <point x="0" y="0" type="line"/>
      <point x="161" y="0" type="line"/>
      <point x="267" y="503" type="line" smooth="yes"/>
      <point x="280" y="567"/>
      <point x="328" y="603"/>
      <point x="382" y="603" type="curve" smooth="yes"/>
      <point x="441" y="603"/>
      <point x="470" y="576"/>
      <point x="470" y="537" type="curve" smooth="yes"/>
      <point x="470" y="457"/>
      <point x="301" y="450"/>
      <point x="301" y="330" type="curve" smooth="yes"/>
      <point x="301" y="285"/>
      <point x="325" y="251"/>
      <point x="376" y="224" type="curve" smooth="yes"/>
      <point x="440" y="190" type="line" smooth="yes"/>
      <point x="475" y="171"/>
      <point x="486" y="160"/>
      <point x="486" y="143" type="curve" smooth="yes"/>
      <point x="486" y="118"/>
      <point x="464" y="103"/>
      <point x="428" y="103" type="curve" smooth="yes"/>
      <point x="386" y="103"/>
      <point x="340" y="128"/>
      <point x="305" y="168" type="curve"/>
      <point x="222" y="76" type="line"/>
      <point x="270" y="19"/>
      <point x="347" y="-13"/>
    </contour>
  </outline>
</glyph>
<glyph name="ccedilla" format="2">
  <advance width="528"/>
  <unicode hex="00E7"/>
  <outline>
    <contour>
      <point x="235" y="-253" type="curve" smooth="yes"/>
      <point x="312" y="-253"/>
      <point x="373" y="-201"/>
      <point x="373" y="-136" type="curve" smooth="yes"/>
      <point x="373" y="-94"/>
      <point x="342" y="-66"/>
      <point x="288" y="-59" type="curve"/>
      <point x="310" y="-9" type="line"/>
      <point x="373" y="-1"/>
      <point x="431" y="26"/>
      <point x="476" y="71" type="curve"/>
      <point x="398" y="172" type="line"/>
      <point x="370" y="143"/>
      <point x="338" y="129"/>
      <point x="300" y="129" type="curve" smooth="yes"/>
      <point x="236" y="129"/>
      <point x="196" y="171"/>
      <point x="196" y="239" type="curve" smooth="yes"/>
      <point x="196" y="321"/>
      <point x="250" y="386"/>
      <point x="318" y="386" type="curve" smooth="yes"/>
      <point x="366" y="386"/>
      <point x="400" y="366"/>
      <point x="424" y="323" type="curve"/>
      <point x="536" y="415" type="line"/>
      <point x="492" y="485"/>
      <point x="413" y="525"/>
      <point x="321" y="525" type="curve" smooth="yes"/>
      <point x="163" y="525"/>
      <point x="38" y="393"/>
      <point x="38" y="225" type="curve" smooth="yes"/>
      <point x="38" y="102"/>
      <point x="120" y="8"/>
      <point x="237" y="-8" type="curve"/>
      <point x="194" y="-109" type="line"/>
      <point x="235" y="-109" type="line" smooth="yes"/>
      <point x="266" y="-109"/>
      <point x="286" y="-123"/>
      <point x="286" y="-144" type="curve" smooth="yes"/>
      <point x="286" y="-167"/>
      <point x="265" y="-182"/>
      <point x="233" y="-182" type="curve" smooth="yes"/>
      <point x="203" y="-182"/>
      <point x="175" y="-170"/>
      <point x="156" y="-150" type="curve"/>
      <point x="101" y="-205" type="line"/>
      <point x="131" y="-238"/>
      <point x="175" y="-253"/>
    </contour>
  </outline>
</glyph>
<glyph name="eth" format="2">
  <advance width="584"/>
  <unicode hex="00F0"/>
  <outline>
    <contour>
      <point x="274" y="-9" type="curve" smooth="yes"/>
      <point x="442" y="-9"/>
      <point x="567" y="151"/>
      <point x="567" y="366" type="curve" smooth="yes"/>
      <point x="567" y="463"/>
      <point x="546" y="549"/>
      <point x="504" y="623" type="curve"/>
      <point x="583" y="663" type="line"/>
      <point x="548" y="745" type="line"/>
      <point x="452" y="695" type="line"/>
      <point x="427" y="724"/>
      <point x="397" y="750"/>
      <point x="364" y="774" type="curve"/>
      <point x="263" y="677" type="line"/>
      <point x="285" y="663"/>
      <point x="305" y="647"/>
      <point x="323" y="629" type="curve"/>
      <point x="258" y="595" type="line"/>
      <point x="291" y="514" type="line"/>
      <point x="380" y="560" type="line"/>
      <point x="413" y="509"/>
      <point x="431" y="454"/>
      <point x="434" y="396" type="curve"/>
      <point x="411" y="437"/>
      <point x="352" y="466"/>
      <point x="282" y="466" type="curve" smooth="yes"/>
      <point x="147" y="466"/>
      <point x="45" y="359"/>
      <point x="45" y="217" type="curve" smooth="yes"/>
      <point x="45" y="83"/>
      <point x="138" y="-9"/>
    </contour>
    <contour>
      <point x="279" y="128" type="curve" smooth="yes"/>
      <point x="227" y="128"/>
      <point x="187" y="170"/>
      <point x="187" y="226" type="curve" smooth="yes"/>
      <point x="187" y="290"/>
      <point x="240" y="345"/>
      <point x="302" y="345" type="curve" smooth="yes"/>
      <point x="352" y="345"/>
      <point x="391" y="303"/>
      <point x="391" y="248" type="curve" smooth="yes"/>
      <point x="391" y="184"/>
      <point x="339" y="128"/>
    </contour>
  </outline>
</glyph>
<glyph name="oslash" format="2">
  <advance width="611"/>
  <unicode hex="00F8"/>
  <outline>
    <contour>
      <point x="282" y="-10" type="curve" smooth="yes"/>
      <point x="440" y="-10"/>
      <point x="570" y="123"/>
      <point x="570" y="284" type="curve" smooth="yes"/>
      <point x="570" y="337"/>
      <point x="556" y="384"/>
      <point x="530" y="422" type="curve"/>
      <point x="628" y="516" type="line"/>
      <point x="517" y="516" type="line"/>
      <point x="477" y="478" type="line"/>
      <point x="437" y="508"/>
      <point x="386" y="525"/>
      <point x="328" y="525" type="curve" smooth="yes"/>
      <point x="168" y="525"/>
      <point x="40" y="394"/>
      <point x="40" y="231" type="curve" smooth="yes"/>
      <point x="40" y="179"/>
      <point x="54" y="132"/>
      <point x="80" y="94" type="curve"/>
      <point x="-17" y="0" type="line"/>
      <point x="92" y="0" type="line"/>
      <point x="132" y="38" type="line"/>
      <point x="172" y="8"/>
      <point x="224" y="-10"/>
    </contour>
    <contour>
      <point x="199" y="208" type="line"/>
      <point x="197" y="218"/>
      <point x="196" y="228"/>
      <point x="196" y="239" type="curve" smooth="yes"/>
      <point x="196" y="324"/>
      <point x="250" y="390"/>
      <point x="318" y="390" type="curve" smooth="yes"/>
      <point x="339" y="390"/>
      <point x="357" y="385"/>
      <point x="371" y="375" type="curve"/>
    </contour>
    <contour>
      <point x="291" y="127" type="curve" smooth="yes"/>
      <point x="271" y="127"/>
      <point x="254" y="132"/>
      <point x="239" y="142" type="curve"/>
      <point x="412" y="308" type="line"/>
      <point x="413" y="299"/>
      <point x="414" y="290"/>
      <point x="414" y="280" type="curve" smooth="yes"/>
      <point x="414" y="192"/>
      <point x="362" y="127"/>
    </contour>
  </outline>
</glyph>
<glyph name="thorn" format="2">
  <advance width="632"/>
  <unicode hex="00FE"/>
  <outline>
    <contour>
      <point x="-40" y="-209" type="line"/>
      <point x="119" y="-209" type="line"/>
      <point x="181" y="81" type="line"/>
      <point x="211" y="27"/>
      <point x="264" y="-3"/>
      <point x="330" y="-3" type="curve" smooth="yes"/>
      <point x="474" y="-3"/>
      <point x="591" y="125"/>
      <point x="591" y="283" type="curve" smooth="yes"/>
      <point x="591" y="415"/>
      <point x="506" y="519"/>
      <point x="397" y="519" type="curve" smooth="yes"/>
      <point x="345" y="519"/>
      <point x="297" y="498"/>
      <point x="262" y="461" type="curve"/>
      <point x="321" y="737" type="line"/>
      <point x="158" y="712" type="line"/>
    </contour>
    <contour>
      <point x="327" y="386" type="curve" smooth="yes"/>
      <point x="390" y="386"/>
      <point x="436" y="338"/>
      <point x="436" y="270" type="curve" smooth="yes"/>
      <point x="436" y="191"/>
      <point x="380" y="131"/>
      <point x="305" y="131" type="curve" smooth="yes"/>
      <point x="263" y="131"/>
      <point x="225" y="151"/>
      <point x="203" y="183" type="curve"/>
      <point x="238" y="348" type="line"/>
      <point x="265" y="374"/>
      <point x="293" y="386"/>
    </contour>
  </outline>
</glyph>
<glyph name="dcroat" format="2">
  <advance width="638"/>
  <unicode hex="0111"/>
  <outline>
    <contour>
      <point x="235" y="-3" type="curve" smooth="yes"/>
      <point x="285" y="-3"/>
      <point x="331" y="16"/>
      <point x="365" y="48" type="curve"/>
      <point x="355" y="0" type="line"/>
      <point x="512" y="0" type="line"/>
      <point x="631" y="560" type="line"/>
      <point x="687" y="560" type="line"/>
      <point x="707" y="648" type="line"/>
      <point x="649" y="648" type="line"/>
      <point x="668" y="737" type="line"/>
      <point x="505" y="712" type="line"/>
      <point x="491" y="648" type="line"/>
      <point x="396" y="648" type="line"/>
      <point x="376" y="560" type="line"/>
      <point x="473" y="560" type="line"/>
      <point x="448" y="444" type="line"/>
      <point x="416" y="492"/>
      <point x="365" y="519"/>
      <point x="302" y="519" type="curve" smooth="yes"/>
      <point x="158" y="519"/>
      <point x="41" y="391"/>
      <point x="41" y="233" type="curve" smooth="yes"/>
      <point x="41" y="101"/>
      <point x="126" y="-3"/>
    </contour>
    <contour>
      <point x="305" y="130" type="curve" smooth="yes"/>
      <point x="242" y="130"/>
      <point x="197" y="179"/>
      <point x="197" y="246" type="curve" smooth="yes"/>
      <point x="197" y="325"/>
      <point x="253" y="385"/>
      <point x="327" y="385" type="curve" smooth="yes"/>
      <point x="367" y="385"/>
      <point x="403" y="369"/>
      <point x="426" y="342" type="curve"/>
      <point x="388" y="163" type="line"/>
      <point x="363" y="140"/>
      <point x="337" y="130"/>
    </contour>
  </outline>
</glyph>
<glyph name="eogonek" format="2">
  <advance width="583"/>
  <unicode hex="0119"/>
  <outline>
    <contour>
      <point x="266" y="-231" type="curve" smooth="yes"/>
      <point x="301" y="-231"/>
      <point x="337" y="-222"/>
      <point x="362" y="-208" type="curve"/>
      <point x="357" y="-138" type="line"/>
      <point x="346" y="-145"/>
      <point x="328" y="-149"/>
      <point x="310" y="-149" type="curve" smooth="yes"/>
      <point x="285" y="-149"/>
      <point x="270" y="-136"/>
      <point x="270" y="-113" type="curve" smooth="yes"/>
      <point x="270" y="-76"/>
      <point x="304" y="-39"/>
      <point x="373" y="-1" type="curve"/>
      <point x="413" y="9"/>
      <point x="451" y="28"/>
      <point x="491" y="57" type="curve"/>
      <point x="404" y="155" type="line"/>
      <point x="380" y="130"/>
      <point x="346" y="117"/>
      <point x="307" y="117" type="curve" smooth="yes"/>
      <point x="245" y="117"/>
      <point x="200" y="157"/>
      <point x="191" y="217" type="curve"/>
      <point x="537" y="217" type="line"/>
      <point x="541" y="238"/>
      <point x="543" y="262"/>
      <point x="543" y="293" type="curve" smooth="yes"/>
      <point x="543" y="430"/>
      <point x="452" y="524"/>
      <point x="318" y="524" type="curve" smooth="yes"/>
      <point x="165" y="524"/>
      <point x="38" y="391"/>
      <point x="38" y="233" type="curve" smooth="yes"/>
      <point x="38" y="94"/>
      <point x="137" y="-5"/>
      <point x="277" y="-11" type="curve"/>
      <point x="210" y="-54"/>
      <point x="178" y="-101"/>
      <point x="178" y="-153" type="curve" smooth="yes"/>
      <point x="178" y="-201"/>
      <point x="212" y="-231"/>
    </contour>
    <contour>
      <point x="309" y="397" type="curve" smooth="yes"/>
      <point x="360" y="397"/>
      <point x="395" y="363"/>
      <point x="403" y="308" type="curve"/>
      <point x="201" y="308" type="line"/>
      <point x="220" y="362"/>
      <point x="260" y="397"/>
    </contour>
  </outline>
</glyph>
<glyph name="Iogonek" format="2">
  <advance width="302"/>
  <unicode hex="012E"/>
  <outline>
    <contour>
      <point x="70" y="-231" type="curve" smooth="yes"/>
      <point x="105" y="-231"/>
      <point x="141" y="-222"/>
      <point x="166" y="-208" type="curve"/>
      <point x="161" y="-138" type="line"/>
      <point x="150" y="-145"/>
      <point x="132" y="-149"/>
      <point x="114" y="-149" type="curve" smooth="yes"/>
      <point x="89" y="-149"/>
      <point x="74" y="-136"/>
      <point x="74" y="-113" type="curve" smooth="yes"/>
      <point x="74" y="-76"/>
      <point x="109" y="-38"/>
      <point x="179" y="0" type="curve"/>
      <point x="328" y="700" type="line"/>
      <point x="160" y="700" type="line"/>
      <point x="11" y="0" type="line"/>
      <point x="98" y="0" type="line"/>
      <point x="20" y="-47"/>
      <point x="-18" y="-97"/>
      <point x="-18" y="-153" type="curve" smooth="yes"/>
      <point x="-18" y="-201"/>
      <point x="16" y="-231"/>
    </contour>
  </outline>
</glyph>
<glyph name="iogonek" format="2">
  <advance width="283"/>
  <unicode hex="012F"/>
  <outline>
    <contour>
      <point x="217" y="596" type="curve" smooth="yes"/>
      <point x="272" y="596"/>
      <point x="318" y="642"/>
      <point x="318" y="697" type="curve" smooth="yes"/>
      <point x="318" y="742"/>
      <point x="282" y="777"/>
      <point x="237" y="777" type="curve" smooth="yes"/>
      <point x="184" y="777"/>
      <point x="137" y="729"/>
      <point x="137" y="675" type="curve" smooth="yes"/>
      <point x="137" y="630"/>
      <point x="171" y="596"/>
    </contour>
    <contour>
      <point x="56" y="-231" type="curve" smooth="yes"/>
      <point x="91" y="-231"/>
      <point x="127" y="-222"/>
      <point x="152" y="-208" type="curve"/>
      <point x="147" y="-138" type="line"/>
      <point x="136" y="-145"/>
      <point x="118" y="-149"/>
      <point x="100" y="-149" type="curve" smooth="yes"/>
      <point x="75" y="-149"/>
      <point x="60" y="-136"/>
      <point x="60" y="-113" type="curve" smooth="yes"/>
      <point x="60" y="-76"/>
      <point x="95" y="-38"/>
      <point x="165" y="0" type="curve"/>
      <point x="277" y="516" type="line"/>
      <point x="118" y="516" type="line"/>
      <point x="6" y="0" type="line"/>
      <point x="84" y="0" type="line"/>
      <point x="6" y="-47"/>
      <point x="-32" y="-97"/>
      <point x="-32" y="-153" type="curve" smooth="yes"/>
      <point x="-32" y="-201"/>
      <point x="2" y="-231"/>
    </contour>
  </outline>
</glyph>
<glyph name="lacute" format="2">
  <advance width="283"/>
  <unicode hex="013A"/>
  <outline>
    <contour>
      <point x="6" y="0" type="line"/>
      <point x="165" y="0" type="line"/>
      <point x="317" y="727" type="line"/>
      <point x="159" y="727" type="line"/>
    </contour>
    <component base="acute" xOffset="-114" yOffset="179"/>
  </outline>
</glyph>
<glyph name="Eng" format="2">
  <advance width="773"/>
  <unicode hex="014A"/>
  <outline>
    <contour>
      <point x="438" y="-219" type="curve" smooth="yes"/>
      <point x="537" y="-219"/>
      <point x="605" y="-164"/>
      <point x="627" y="-62" type="curve" smooth="yes"/>
      <point x="789" y="700" type="line"/>
      <point x="630" y="700" type="line"/>
      <point x="542" y="283" type="line"/>
      <point x="334" y="700" type="line"/>
      <point x="170" y="700" type="line"/>
      <point x="21" y="0" type="line"/>
      <point x="180" y="0" type="line"/>
      <point x="272" y="443" type="line"/>
      <point x="492" y="10" type="line"/>
      <point x="480" y="-45" type="line" smooth="yes"/>
      <point x="473" y="-75"/>
      <point x="456" y="-89"/>
      <point x="426" y="-89" type="curve" smooth="yes"/>
      <point x="403" y="-89"/>
      <point x="388" y="-86"/>
      <point x="375" y="-83" type="curve"/>
      <point x="349" y="-204" type="line"/>
      <point x="367" y="-211"/>
      <point x="400" y="-219"/>
    </contour>
  </outline>
</glyph>
<glyph name="eng" format="2">
  <advance width="607"/>
  <unicode hex="014B"/>
  <outline>
    <contour>
      <point x="288" y="-219" type="curve" smooth="yes"/>
      <point x="389" y="-219"/>
      <point x="458" y="-163"/>
      <point x="480" y="-61" type="curve" smooth="yes"/>
      <point x="564" y="337" type="line" smooth="yes"/>
      <point x="587" y="445"/>
      <point x="530" y="522"/>
      <point x="429" y="522" type="curve" smooth="yes"/>
      <point x="366" y="522"/>
      <point x="308" y="492"/>
      <point x="260" y="436" type="curve"/>
      <point x="277" y="516" type="line"/>
      <point x="118" y="516" type="line"/>
      <point x="6" y="0" type="line"/>
      <point x="165" y="0" type="line"/>
      <point x="243" y="358" type="line"/>
      <point x="270" y="385"/>
      <point x="297" y="397"/>
      <point x="328" y="397" type="curve" smooth="yes"/>
      <point x="382" y="397"/>
      <point x="410" y="356"/>
      <point x="397" y="297" type="curve" smooth="yes"/>
      <point x="324" y="-44" type="line" smooth="yes"/>
      <point x="318" y="-71"/>
      <point x="302" y="-84"/>
      <point x="275" y="-84" type="curve" smooth="yes"/>
      <point x="252" y="-84"/>
      <point x="238" y="-82"/>
      <point x="223" y="-78" type="curve"/>
      <point x="197" y="-204" type="line"/>
      <point x="216" y="-212"/>
      <point x="258" y="-219"/>
    </contour>
  </outline>
</glyph>
<glyph name="OE" format="2">
  <advance width="1080"/>
  <unicode hex="0152"/>
  <outline>
    <contour>
      <point x="398" y="0" type="curve" smooth="yes"/>
      <point x="967" y="0" type="line"/>
      <point x="998" y="149" type="line"/>
      <point x="674" y="149" type="line"/>
      <point x="704" y="188"/>
      <point x="726" y="233"/>
      <point x="738" y="281" type="curve"/>
      <point x="909" y="281" type="line"/>
      <point x="940" y="425" type="line"/>
      <point x="748" y="425" type="line"/>
      <point x="741" y="470"/>
      <point x="725" y="513"/>
      <point x="702" y="551" type="curve"/>
      <point x="1084" y="551" type="line"/>
      <point x="1115" y="700" type="line"/>
      <point x="444" y="700" type="line" smooth="yes"/>
      <point x="230" y="700"/>
      <point x="64" y="536"/>
      <point x="64" y="323" type="curve" smooth="yes"/>
      <point x="64" y="133"/>
      <point x="201" y="0"/>
    </contour>
    <contour>
      <point x="399" y="152" type="curve" smooth="yes"/>
      <point x="301" y="152"/>
      <point x="230" y="228"/>
      <point x="230" y="333" type="curve" smooth="yes"/>
      <point x="230" y="452"/>
      <point x="317" y="548"/>
      <point x="423" y="548" type="curve" smooth="yes"/>
      <point x="519" y="548"/>
      <point x="589" y="471"/>
      <point x="589" y="367" type="curve" smooth="yes"/>
      <point x="589" y="249"/>
      <point x="503" y="152"/>
    </contour>
  </outline>
</glyph>
<glyph name="Scedilla" format="2">
  <advance width="642"/>
  <unicode hex="015E"/>
  <outline>
    <contour>
      <point x="258" y="-253" type="curve" smooth="yes"/>
      <point x="335" y="-253"/>
      <point x="396" y="-201"/>
      <point x="396" y="-136" type="curve" smooth="yes"/>
      <point x="396" y="-94"/>
      <point x="365" y="-66"/>
      <point x="311" y="-59" type="curve"/>
      <point x="333" y="-10" type="line"/>
      <point x="495" y="-5"/>
      <point x="606" y="91"/>
      <point x="606" y="228" type="curve" smooth="yes"/>
      <point x="606" y="319"/>
      <point x="547" y="382"/>
      <point x="437" y="410" type="curve" smooth="yes"/>
      <point x="305" y="443" type="line" smooth="yes"/>
      <point x="255" y="457"/>
      <point x="234" y="475"/>
      <point x="234" y="504" type="curve" smooth="yes"/>
      <point x="234" y="545"/>
      <point x="271" y="571"/>
      <point x="328" y="571" type="curve" smooth="yes"/>
      <point x="409" y="571"/>
      <point x="478" y="541"/>
      <point x="540" y="479" type="curve"/>
      <point x="642" y="597" type="line"/>
      <point x="570" y="669"/>
      <point x="460" y="710"/>
      <point x="340" y="710" type="curve" smooth="yes"/>
      <point x="177" y="710"/>
      <point x="73" y="622"/>
      <point x="73" y="482" type="curve" smooth="yes"/>
      <point x="73" y="398"/>
      <point x="124" y="337"/>
      <point x="217" y="310" type="curve" smooth="yes"/>
      <point x="358" y="273" type="line" smooth="yes"/>
      <point x="418" y="255"/>
      <point x="438" y="238"/>
      <point x="438" y="205" type="curve" smooth="yes"/>
      <point x="438" y="159"/>
      <point x="396" y="128"/>
      <point x="333" y="128" type="curve" smooth="yes"/>
      <point x="260" y="128"/>
      <point x="194" y="160"/>
      <point x="105" y="238" type="curve"/>
      <point x="3" y="118" type="line"/>
      <point x="80" y="44"/>
      <point x="163" y="4"/>
      <point x="261" y="-7" type="curve"/>
      <point x="217" y="-109" type="line"/>
      <point x="258" y="-109" type="line" smooth="yes"/>
      <point x="289" y="-109"/>
      <point x="309" y="-123"/>
      <point x="309" y="-144" type="curve" smooth="yes"/>
      <point x="309" y="-167"/>
      <point x="288" y="-182"/>
      <point x="256" y="-182" type="curve" smooth="yes"/>
      <point x="226" y="-182"/>
      <point x="198" y="-170"/>
      <point x="179" y="-150" type="curve"/>
      <point x="124" y="-205" type="line"/>
      <point x="154" y="-238"/>
      <point x="198" y="-253"/>
    </contour>
  </outline>
</glyph>
<glyph name="scedilla" format="2">
  <advance width="505"/>
  <unicode hex="015F"/>
  <outline>
    <contour>
      <point x="176" y="-253" type="curve" smooth="yes"/>
      <point x="253" y="-253"/>
      <point x="314" y="-201"/>
      <point x="314" y="-136" type="curve" smooth="yes"/>
      <point x="314" y="-94"/>
      <point x="283" y="-66"/>
      <point x="229" y="-59" type="curve"/>
      <point x="250" y="-11" type="line"/>
      <point x="367" y="-5"/>
      <point x="453" y="73"/>
      <point x="453" y="176" type="curve" smooth="yes"/>
      <point x="453" y="241"/>
      <point x="407" y="289"/>
      <point x="325" y="310" type="curve" smooth="yes"/>
      <point x="232" y="334" type="line" smooth="yes"/>
      <point x="199" y="343"/>
      <point x="188" y="352"/>
      <point x="188" y="371" type="curve" smooth="yes"/>
      <point x="188" y="395"/>
      <point x="208" y="408"/>
      <point x="246" y="408" type="curve" smooth="yes"/>
      <point x="290" y="408"/>
      <point x="341" y="389"/>
      <point x="391" y="353" type="curve"/>
      <point x="476" y="450" type="line"/>
      <point x="413" y="499"/>
      <point x="337" y="525"/>
      <point x="255" y="525" type="curve" smooth="yes"/>
      <point x="125" y="525"/>
      <point x="48" y="459"/>
      <point x="48" y="348" type="curve" smooth="yes"/>
      <point x="48" y="281"/>
      <point x="91" y="233"/>
      <point x="170" y="211" type="curve" smooth="yes"/>
      <point x="265" y="187" type="line" smooth="yes"/>
      <point x="293" y="180"/>
      <point x="305" y="169"/>
      <point x="305" y="151" type="curve" smooth="yes"/>
      <point x="305" y="126"/>
      <point x="278" y="108"/>
      <point x="240" y="108" type="curve" smooth="yes"/>
      <point x="191" y="108"/>
      <point x="145" y="126"/>
      <point x="75" y="173" type="curve"/>
      <point x="-9" y="70" type="line"/>
      <point x="37" y="30"/>
      <point x="104" y="2"/>
      <point x="179" y="-7" type="curve"/>
      <point x="135" y="-109" type="line"/>
      <point x="176" y="-109" type="line" smooth="yes"/>
      <point x="207" y="-109"/>
      <point x="227" y="-123"/>
      <point x="227" y="-144" type="curve" smooth="yes"/>
      <point x="227" y="-167"/>
      <point x="206" y="-182"/>
      <point x="174" y="-182" type="curve" smooth="yes"/>
      <point x="144" y="-182"/>
      <point x="116" y="-170"/>
      <point x="97" y="-150" type="curve"/>
      <point x="42" y="-205" type="line"/>
      <point x="72" y="-238"/>
      <point x="116" y="-253"/>
    </contour>
  </outline>
</glyph>
<glyph name="tcedilla" format="2">
  <advance width="449"/>
  <unicode hex="0163"/>
  <outline>
    <contour>
      <point x="201" y="-253" type="curve" smooth="yes"/>
      <point x="278" y="-253"/>
      <point x="339" y="-201"/>
      <point x="339" y="-136" type="curve" smooth="yes"/>
      <point x="339" y="-94"/>
      <point x="308" y="-66"/>
      <point x="254" y="-59" type="curve"/>
      <point x="277" y="-6" type="line"/>
      <point x="309" y="-5"/>
      <point x="342" y="-1"/>
      <point x="363" y="5" type="curve"/>
      <point x="391" y="135" type="line"/>
      <point x="357" y="128"/>
      <point x="348" y="127"/>
      <point x="332" y="127" type="curve" smooth="yes"/>
      <point x="280" y="127"/>
      <point x="262" y="146"/>
      <point x="273" y="193" type="curve" smooth="yes"/>
      <point x="315" y="391" type="line"/>
      <point x="450" y="391" type="line"/>
      <point x="478" y="516" type="line"/>
      <point x="342" y="516" type="line"/>
      <point x="380" y="692" type="line"/>
      <point x="214" y="659" type="line"/>
      <point x="183" y="516" type="line"/>
      <point x="87" y="516" type="line"/>
      <point x="59" y="391" type="line"/>
      <point x="157" y="391" type="line"/>
      <point x="109" y="168" type="line" smooth="yes"/>
      <point x="89" y="74"/>
      <point x="123" y="16"/>
      <point x="207" y="-1" type="curve"/>
      <point x="160" y="-109" type="line"/>
      <point x="201" y="-109" type="line" smooth="yes"/>
      <point x="232" y="-109"/>
      <point x="252" y="-123"/>
      <point x="252" y="-144" type="curve" smooth="yes"/>
      <point x="252" y="-167"/>
      <point x="231" y="-182"/>
      <point x="199" y="-182" type="curve" smooth="yes"/>
      <point x="169" y="-182"/>
      <point x="141" y="-170"/>
      <point x="122" y="-150" type="curve"/>
      <point x="67" y="-205" type="line"/>
      <point x="97" y="-238"/>
      <point x="141" y="-253"/>
    </contour>
  </outline>
</glyph>
<glyph name="Uogonek" format="2">
  <advance width="734"/>
  <unicode hex="0172"/>
  <outline>
    <contour>
      <point x="309" y="-231" type="curve" smooth="yes"/>
      <point x="344" y="-231"/>
      <point x="380" y="-222"/>
      <point x="405" y="-208" type="curve"/>
      <point x="400" y="-138" type="line"/>
      <point x="389" y="-145"/>
      <point x="371" y="-149"/>
      <point x="353" y="-149" type="curve" smooth="yes"/>
      <point x="328" y="-149"/>
      <point x="313" y="-136"/>
      <point x="313" y="-113" type="curve" smooth="yes"/>
      <point x="313" y="-77"/>
      <point x="347" y="-39"/>
      <point x="414" y="-2" type="curve"/>
      <point x="547" y="24"/>
      <point x="641" y="123"/>
      <point x="673" y="272" type="curve" smooth="yes"/>
      <point x="764" y="700" type="line"/>
      <point x="596" y="700" type="line"/>
      <point x="509" y="289" type="line" smooth="yes"/>
      <point x="491" y="202"/>
      <point x="428" y="144"/>
      <point x="354" y="144" type="curve" smooth="yes"/>
      <point x="265" y="144"/>
      <point x="221" y="213"/>
      <point x="244" y="319" type="curve" smooth="yes"/>
      <point x="325" y="700" type="line"/>
      <point x="156" y="700" type="line"/>
      <point x="79" y="337" type="line" smooth="yes"/>
      <point x="36" y="138"/>
      <point x="134" y="0"/>
      <point x="323" y="-9" type="curve"/>
      <point x="255" y="-53"/>
      <point x="221" y="-100"/>
      <point x="221" y="-153" type="curve" smooth="yes"/>
      <point x="221" y="-201"/>
      <point x="255" y="-231"/>
    </contour>
  </outline>
</glyph>
<glyph name="circumflex" format="2">
  <advance width="600"/>
  <unicode hex="02C6"/>
  <outline>
    <contour>
      <point x="173" y="599" type="line"/>
      <point x="300" y="599" type="line"/>
      <point x="396" y="682" type="line"/>
      <point x="460" y="599" type="line"/>
      <point x="577" y="599" type="line"/>
      <point x="482" y="750" type="line"/>
      <point x="329" y="750" type="line"/>
    </contour>
  </outline>
</glyph>
<glyph name="breve" format="2">
  <advance width="600"/>
  <unicode hex="02D8"/>
  <outline>
    <contour>
      <point x="380" y="592" type="curve" smooth="yes"/>
      <point x="473" y="592"/>
      <point x="546" y="641"/>
      <point x="585" y="728" type="curve"/>
      <point x="493" y="756" type="line"/>
      <point x="468" y="706"/>
      <point x="430" y="679"/>
      <point x="385" y="679" type="curve" smooth="yes"/>
      <point x="336" y="679"/>
      <point x="309" y="707"/>
      <point x="304" y="764" type="curve"/>
      <point x="216" y="742" type="line"/>
      <point x="220" y="649"/>
      <point x="282" y="592"/>
    </contour>
  </outline>
</glyph>
<glyph name="hungarumlaut" format="2">
  <advance width="600"/>
  <unicode hex="02DD"/>
  <outline>
    <contour>
      <point x="350" y="746" type="line"/>
      <point x="188" y="603" type="line"/>
      <point x="306" y="603" type="line"/>
      <point x="490" y="746" type="line"/>
    </contour>
    <contour>
      <point x="572" y="746" type="line"/>
      <point x="410" y="603" type="line"/>
      <point x="520" y="603" type="line"/>
      <point x="715" y="746" type="line"/>
    </contour>
  </outline>
</glyph>
<glyph name="uni0304" format="2">
  <unicode hex="0304"/>
  <anchor x="359" y="516" name="_top"/>
  <outline>
    <contour>
      <point x="219" y="626" type="line"/>
      <point x="541" y="626" type="line"/>
      <point x="563" y="726" type="line"/>
      <point x="241" y="726" type="line"/>
    </contour>
  </outline>
</glyph>
<glyph name="uni0326" format="2">
  <unicode hex="0326"/>
  <anchor x="265" y="0" name="_bottom"/>
  <outline>
    <contour>
      <point x="75" y="-305" type="line"/>
      <point x="184" y="-305" type="line"/>
      <point x="324" y="-90" type="line"/>
      <point x="183" y="-90" type="line"/>
    </contour>
  </outline>
</glyph>
<glyph name="quotedblleft" format="2">
  <advance width="479"/>
  <unicode hex="201C"/>
  <outline>
    <contour>
      <point x="344" y="750" type="line"/>
      <point x="230" y="750" type="line"/>
      <point x="55" y="446" type="line"/>
      <point x="210" y="446" type="line"/>
    </contour>
    <contour>
      <point x="573" y="750" type="line"/>
      <point x="459" y="750" type="line"/>
      <point x="284" y="446" type="line"/>
      <point x="439" y="446" type="line"/>
    </contour>
  </outline>
</glyph>
<glyph name="dagger" format="2">
  <advance width="456"/>
  <unicode hex="2020"/>
  <outline>
    <contour>
      <point x="114" y="0" type="line"/>
      <point x="234" y="0" type="line"/>
      <point x="321" y="407" type="line"/>
      <point x="445" y="407" type="line"/>
      <point x="470" y="516" type="line"/>
      <point x="344" y="516" type="line"/>
      <point x="383" y="700" type="line"/>
      <point x="263" y="700" type="line"/>
      <point x="224" y="516" type="line"/>
      <point x="99" y="516" type="line"/>
      <point x="74" y="407" type="line"/>
      <point x="201" y="407" type="line"/>
    </contour>
  </outline>
</glyph>
<glyph name="bullet" format="2">
  <advance width="370"/>
  <unicode hex="2022"/>
  <outline>
    <contour>
      <point x="184" y="202" type="curve" smooth="yes"/>
      <point x="253" y="202"/>
      <point x="314" y="266"/>
      <point x="314" y="338" type="curve" smooth="yes"/>
      <point x="314" y="400"/>
      <point x="272" y="445"/>
      <point x="214" y="445" type="curve" smooth="yes"/>
      <point x="141" y="445"/>
      <point x="82" y="383"/>
      <point x="82" y="308" type="curve" smooth="yes"/>
      <point x="82" y="247"/>
      <point x="126" y="202"/>
    </contour>
  </outline>
</glyph>
<glyph name="guilsinglright" format="2">
  <advance width="456"/>
  <unicode hex="203A"/>
  <outline>
    <contour>
      <point x="255" y="516" type="line"/>
      <point x="102" y="516" type="line"/>
      <point x="268" y="259" type="line"/>
      <point x="-12" y="0" type="line"/>
      <point x="143" y="0" type="line"/>
      <point x="428" y="258" type="line"/>
    </contour>
  </outline>
</glyph>
<glyph name="fraction" format="2">
  <advance width="566"/>
  <unicode hex="2044"/>
  <outline>
    <contour>
      <point x="-39" y="0" type="line"/>
      <point x="68" y="0" type="line"/>
      <point x="607" y="700" type="line"/>
      <point x="499" y="700" type="line"/>
    </contour>
  </outline>
</glyph>
<glyph name="uni2074" format="2">
  <advance width="360"/>
  <unicode hex="2074"/>
  <outline>
    <contour>
      <point x="228" y="350" type="line"/>
      <point x="320" y="350" type="line"/>
      <point x="335" y="423" type="line"/>
      <point x="376" y="423" type="line"/>
      <point x="393" y="497" type="line"/>
      <point x="351" y="497" type="line"/>
      <point x="394" y="700" type="line"/>
      <point x="286" y="700" type="line"/>
      <point x="78" y="500" type="line"/>
      <point x="61" y="423" type="line"/>
      <point x="244" y="423" type="line"/>
    </contour>
    <contour>
      <point x="168" y="497" type="line"/>
      <point x="283" y="609" type="line"/>
      <point x="259" y="497" type="line"/>
    </contour>
  </outline>
</glyph>
<glyph name="uni2078" format="2">
  <advance width="334"/>
  <unicode hex="2078"/>
  <outline>
    <contour>
      <point x="198" y="344" type="curve" smooth="yes"/>
      <point x="278" y="344"/>
      <point x="344" y="394"/>
      <point x="344" y="454" type="curve" smooth="yes"/>
      <point x="344" y="487"/>
      <point x="323" y="513"/>
      <point x="290" y="523" type="curve"/>
      <point x="335" y="537"/>
      <point x="368" y="574"/>
      <point x="368" y="616" type="curve" smooth="yes"/>
      <point x="368" y="667"/>
      <point x="317" y="706"/>
      <point x="249" y="706" type="curve" smooth="yes"/>
      <point x="172" y="706"/>
      <point x="107" y="654"/>
      <point x="107" y="594" type="curve" smooth="yes"/>
      <point x="107" y="565"/>
      <point x="124" y="542"/>
      <point x="151" y="530" type="curve"/>
      <point x="102" y="519"/>
      <point x="66" y="480"/>
      <point x="66" y="434" type="curve" smooth="yes"/>
      <point x="66" y="381"/>
      <point x="120" y="344"/>
    </contour>
    <contour>
      <point x="234" y="558" type="curve" smooth="yes"/>
      <point x="212" y="558"/>
      <point x="196" y="572"/>
      <point x="196" y="590" type="curve" smooth="yes"/>
      <point x="196" y="612"/>
      <point x="216" y="630"/>
      <point x="240" y="630" type="curve" smooth="yes"/>
      <point x="260" y="630"/>
      <point x="276" y="616"/>
      <point x="276" y="598" type="curve" smooth="yes"/>
      <point x="276" y="578"/>
      <point x="255" y="558"/>
    </contour>
    <contour>
      <point x="205" y="421" type="curve" smooth="yes"/>
      <point x="179" y="421"/>
      <point x="161" y="434"/>
      <point x="161" y="453" type="curve" smooth="yes"/>
      <point x="161" y="475"/>
      <point x="182" y="492"/>
      <point x="209" y="492" type="curve" smooth="yes"/>
      <point x="235" y="492"/>
      <point x="252" y="478"/>
      <point x="252" y="458" type="curve" smooth="yes"/>
      <point x="252" y="437"/>
      <point x="232" y="421"/>
    </contour>
  </outline>
</glyph>
<glyph name="uni2079" format="2">
  <advance width="337"/>
  <unicode hex="2079"/>
  <outline>
    <contour>
      <point x="233" y="704" type="curve" smooth="yes"/>
      <point x="155" y="704"/>
      <point x="92" y="646"/>
      <point x="92" y="575" type="curve" smooth="yes"/>
      <point x="92" y="523"/>
      <point x="131" y="487"/>
      <point x="187" y="487" type="curve" smooth="yes"/>
      <point x="222" y="487"/>
      <point x="254" y="502"/>
      <point x="277" y="528" type="curve"/>
      <point x="268" y="468"/>
      <point x="230" y="424"/>
      <point x="186" y="424" type="curve" smooth="yes"/>
      <point x="159" y="424"/>
      <point x="135" y="435"/>
      <point x="116" y="455" type="curve"/>
      <point x="61" y="390" type="line"/>
      <point x="92" y="358"/>
      <point x="128" y="343"/>
      <point x="171" y="343" type="curve" smooth="yes"/>
      <point x="280" y="343"/>
      <point x="370" y="440"/>
      <point x="370" y="558" type="curve" smooth="yes"/>
      <point x="370" y="649"/>
      <point x="318" y="704"/>
    </contour>
    <contour>
      <point x="225" y="624" type="curve" smooth="yes"/>
      <point x="254" y="624"/>
      <point x="274" y="605"/>
      <point x="279" y="574" type="curve"/>
      <point x="261" y="561"/>
      <point x="241" y="554"/>
      <point x="222" y="554" type="curve" smooth="yes"/>
      <point x="198" y="554"/>
      <point x="181" y="568"/>
      <point x="181" y="587" type="curve" smooth="yes"/>
      <point x="181" y="608"/>
      <point x="200" y="624"/>
    </contour>
  </outline>
</glyph>
<glyph name="uni2081" format="2">
  <advance width="209"/>
  <unicode hex="2081"/>
  <outline>
    <contour>
      <point x="38" y="0" type="line"/>
      <point x="130" y="0" type="line"/>
      <point x="205" y="350" type="line"/>
      <point x="147" y="350" type="line"/>
      <point x="31" y="305" type="line"/>
      <point x="13" y="224" type="line"/>
      <point x="92" y="254" type="line"/>
    </contour>
  </outline>
</glyph>
<glyph name="uni2082" format="2">
  <advance width="312"/>
  <unicode hex="2082"/>
  <outline>
    <contour>
      <point x="-23" y="0" type="line"/>
      <point x="233" y="0" type="line"/>
      <point x="250" y="78" type="line"/>
      <point x="115" y="78" type="line"/>
      <point x="218" y="162" type="line" smooth="yes"/>
      <point x="261" y="196"/>
      <point x="281" y="229"/>
      <point x="281" y="265" type="curve" smooth="yes"/>
      <point x="281" y="319"/>
      <point x="232" y="356"/>
      <point x="161" y="356" type="curve" smooth="yes"/>
      <point x="117" y="356"/>
      <point x="69" y="337"/>
      <point x="26" y="303" type="curve"/>
      <point x="62" y="237" type="line"/>
      <point x="95" y="263"/>
      <point x="121" y="274"/>
      <point x="145" y="274" type="curve" smooth="yes"/>
      <point x="172" y="274"/>
      <point x="189" y="263"/>
      <point x="189" y="245" type="curve" smooth="yes"/>
      <point x="189" y="232"/>
      <point x="176" y="215"/>
      <point x="153" y="198" type="curve" smooth="yes"/>
      <point x="-9" y="66" type="line"/>
    </contour>
  </outline>
</glyph>
<glyph name="uni2083" format="2">
  <advance width="331"/>
  <unicode hex="2083"/>
  <outline>
    <contour>
      <point x="122" y="-5" type="curve" smooth="yes"/>
      <point x="204" y="-5"/>
      <point x="270" y="45"/>
      <point x="270" y="108" type="curve" smooth="yes"/>
      <point x="270" y="139"/>
      <point x="251" y="161"/>
      <point x="217" y="172" type="curve"/>
      <point x="262" y="185"/>
      <point x="298" y="220"/>
      <point x="298" y="257" type="curve" smooth="yes"/>
      <point x="298" y="316"/>
      <point x="246" y="357"/>
      <point x="172" y="357" type="curve" smooth="yes"/>
      <point x="125" y="357"/>
      <point x="74" y="339"/>
      <point x="32" y="307" type="curve"/>
      <point x="77" y="242" type="line"/>
      <point x="109" y="264"/>
      <point x="135" y="274"/>
      <point x="158" y="274" type="curve" smooth="yes"/>
      <point x="182" y="274"/>
      <point x="201" y="259"/>
      <point x="201" y="239" type="curve" smooth="yes"/>
      <point x="201" y="221"/>
      <point x="181" y="209"/>
      <point x="151" y="209" type="curve" smooth="yes"/>
      <point x="121" y="209" type="line"/>
      <point x="105" y="134" type="line"/>
      <point x="146" y="134" type="line" smooth="yes"/>
      <point x="167" y="134"/>
      <point x="179" y="124"/>
      <point x="179" y="106" type="curve" smooth="yes"/>
      <point x="179" y="89"/>
      <point x="157" y="77"/>
      <point x="129" y="77" type="curve" smooth="yes"/>
      <point x="95" y="77"/>
      <point x="69" y="89"/>
      <point x="46" y="116" type="curve"/>
      <point x="-17" y="57" type="line"/>
      <point x="10" y="17"/>
      <point x="60" y="-5"/>
    </contour>
  </outline>
</glyph>
<glyph name="uni2084" format="2">
  <advance width="358"/>
  <unicode hex="2084"/>
  <outline>
    <contour>
      <point x="154" y="0" type="line"/>
      <point x="246" y="0" type="line"/>
      <point x="261" y="73" type="line"/>
      <point x="302" y="73" type="line"/>
      <point x="319" y="147" type="line"/>
      <point x="277" y="147" type="line"/>
      <point x="320" y="350" type="line"/>
      <point x="212" y="350" type="line"/>
      <point x="4" y="150" type="line"/>
      <point x="-13" y="73" type="line"/>
      <point x="170" y="73" type="line"/>
    </contour>
    <contour>
      <point x="94" y="147" type="line"/>
      <point x="209" y="259" type="line"/>
      <point x="185" y="147" type="line"/>
    </contour>
  </outline>
</glyph>
<glyph name="uni2089" format="2">
  <advance width="337"/>
  <unicode hex="2089"/>
  <outline>
    <contour>
      <point x="159" y="354" type="curve" smooth="yes"/>
      <point x="81" y="354"/>
      <point x="18" y="296"/>
      <point x="18" y="225" type="curve" smooth="yes"/>
      <point x="18" y="173"/>
      <point x="57" y="137"/>
      <point x="113" y="137" type="curve" smooth="yes"/>
      <point x="148" y="137"/>
      <point x="180" y="152"/>
      <point x="203" y="178" type="curve"/>
      <point x="194" y="118"/>
      <point x="156" y="74"/>
      <point x="112" y="74" type="curve" smooth="yes"/>
      <point x="85" y="74"/>
      <point x="61" y="85"/>
      <point x="42" y="105" type="curve"/>
      <point x="-13" y="40" type="line"/>
      <point x="18" y="8"/>
      <point x="54" y="-7"/>
      <point x="97" y="-7" type="curve" smooth="yes"/>
      <point x="206" y="-7"/>
      <point x="296" y="90"/>
      <point x="296" y="208" type="curve" smooth="yes"/>
      <point x="296" y="299"/>
      <point x="244" y="354"/>
    </contour>
    <contour>
      <point x="151" y="274" type="curve" smooth="yes"/>
      <point x="180" y="274"/>
      <point x="200" y="255"/>
      <point x="205" y="224" type="curve"/>
      <point x="187" y="211"/>
      <point x="167" y="204"/>
      <point x="148" y="204" type="curve" smooth="yes"/>
      <point x="124" y="204"/>
      <point x="107" y="218"/>
      <point x="107" y="237" type="curve" smooth="yes"/>
      <point x="107" y="258"/>
      <point x="126" y="274"/>
    </contour>
  </outline>
</glyph>
<glyph name="Euro" format="2">
  <advance width="732"/>
  <unicode hex="20AC"/>
  <outline>
    <contour>
      <point x="403" y="-11" type="curve" smooth="yes"/>
      <point x="497" y="-11"/>
      <point x="581" y="27"/>
      <point x="654" y="103" type="curve"/>
      <point x="570" y="189" type="line"/>
      <point x="530" y="146"/>
      <point x="474" y="120"/>
      <point x="420" y="120" type="curve" smooth="yes"/>
      <point x="341" y="120"/>
      <point x="286" y="167"/>
      <point x="270" y="245" type="curve"/>
      <point x="422" y="245" type="line"/>
      <point x="469" y="323" type="line"/>
      <point x="265" y="323" type="line"/>
      <point x="266" y="341"/>
      <point x="268" y="359"/>
      <point x="272" y="376" type="curve"/>
      <point x="497" y="376" type="line"/>
      <point x="543" y="455" type="line"/>
      <point x="300" y="455" type="line"/>
      <point x="339" y="531"/>
      <point x="406" y="580"/>
      <point x="486" y="580" type="curve"/>
      <point x="549" y="580"/>
      <point x="605" y="545"/>
      <point x="632" y="489" type="curve"/>
      <point x="747" y="564" type="line"/>
      <point x="705" y="659"/>
      <point x="619" y="711"/>
      <point x="501" y="711" type="curve" smooth="yes"/>
      <point x="340" y="711"/>
      <point x="208" y="608"/>
      <point x="153" y="455" type="curve"/>
      <point x="79" y="455" type="line"/>
      <point x="62" y="376" type="line"/>
      <point x="132" y="376" type="line"/>
      <point x="129" y="359"/>
      <point x="127" y="341"/>
      <point x="126" y="323" type="curve"/>
      <point x="51" y="323" type="line"/>
      <point x="34" y="245" type="line"/>
      <point x="128" y="245" type="line"/>
      <point x="145" y="89"/>
      <point x="249" y="-11"/>
    </contour>
  </outline>
</glyph>
<glyph name="uni2215" format="2">
  <advance width="566"/>
  <unicode hex="2215"/>
  <outline>
    <contour>
      <point x="-39" y="0" type="line"/>
      <point x="68" y="0" type="line"/>
      <point x="607" y="700" type="line"/>
      <point x="499" y="700" type="line"/>
    </contour>
  </outline>
</glyph>
<glyph name="a.school" format="2">
  <advance width="628"/>
  <anchor x="339" y="516" name="top"/>
  <anchor x="512" y="0" name="bottom"/>
  <outline>
    <contour>
      <point x="235" y="-3" type="curve" smooth="yes"/>
      <point x="285" y="-3"/>
      <point x="331" y="16"/>
      <point x="365" y="48" type="curve"/>
      <point x="355" y="0" type="line"/>
      <point x="512" y="0" type="line"/>
      <point x="624" y="516" type="line"/>
      <point x="466" y="516" type="line"/>
      <point x="450" y="441" type="line"/>
      <point x="418" y="491"/>
      <point x="366" y="519"/>
      <point x="302" y="519" type="curve" smooth="yes"/>
      <point x="158" y="519"/>
      <point x="41" y="391"/>
      <point x="41" y="233" type="curve" smooth="yes"/>
      <point x="41" y="101"/>
      <point x="126" y="-3"/>
    </contour>
    <contour>
      <point x="305" y="130" type="curve" smooth="yes"/>
      <point x="242" y="130"/>
      <point x="197" y="179"/>
      <point x="197" y="246" type="curve" smooth="yes"/>
      <point x="197" y="325"/>
      <point x="253" y="385"/>
      <point x="327" y="385" type="curve" smooth="yes"/>
      <point x="368" y="385"/>
      <point x="404" y="368"/>
      <point x="428" y="341" type="curve"/>
      <point x="389" y="163" type="line"/>
      <point x="364" y="140"/>
      <point x="337" y="130"/>
    </contour>
  </outline>
</glyph>
<glyph name="acutecomb" format="2">
  <anchor x="359" y="516" name="_top"/>
  <outline>
    <contour>
      <point x="284" y="601" type="line"/>
      <point x="428" y="601" type="line"/>
      <point x="645" y="747" type="line"/>
      <point x="451" y="747" type="line"/>
    </contour>
  </outline>
</glyph>
<glyph name="cordinal" format="2">
  <advance width="416"/>
  <outline>
    <contour>
      <point x="271" y="296" type="curve" smooth="yes"/>
      <point x="329" y="296"/>
      <point x="385" y="319"/>
      <point x="430" y="362" type="curve"/>
      <point x="365" y="444" type="line"/>
      <point x="340" y="418"/>
      <point x="315" y="406"/>
      <point x="284" y="406" type="curve" smooth="yes"/>
      <point x="233" y="406"/>
      <point x="200" y="441"/>
      <point x="200" y="493" type="curve" smooth="yes"/>
      <point x="200" y="552"/>
      <point x="243" y="601"/>
      <point x="295" y="601" type="curve" smooth="yes"/>
      <point x="331" y="601"/>
      <point x="358" y="585"/>
      <point x="381" y="551" type="curve"/>
      <point x="465" y="627" type="line"/>
      <point x="429" y="680"/>
      <point x="367" y="711"/>
      <point x="297" y="711" type="curve" smooth="yes"/>
      <point x="175" y="711"/>
      <point x="77" y="611"/>
      <point x="77" y="486" type="curve" smooth="yes"/>
      <point x="77" y="377"/>
      <point x="159" y="296"/>
    </contour>
  </outline>
</glyph>
<glyph name="exclamdown.cap" format="2">
  <advance width="261"/>
  <outline>
    <contour>
      <point x="232" y="473" type="line"/>
      <point x="117" y="473" type="line"/>
      <point x="-10" y="-27" type="line"/>
      <point x="143" y="-27" type="line"/>
    </contour>
    <contour>
      <point x="214" y="711" type="curve" smooth="yes"/>
      <point x="163" y="711"/>
      <point x="117" y="663"/>
      <point x="117" y="609" type="curve" smooth="yes"/>
      <point x="117" y="564"/>
      <point x="149" y="530"/>
      <point x="192" y="530" type="curve" smooth="yes"/>
      <point x="246" y="530"/>
      <point x="292" y="576"/>
      <point x="292" y="632" type="curve" smooth="yes"/>
      <point x="292" y="677"/>
      <point x="259" y="711"/>
    </contour>
  </outline>
</glyph>
<glyph name="reversequoteleft" format="2">
  <advance width="258"/>
  <outline>
    <contour>
      <point x="128" y="446" type="line"/>
      <point x="244" y="446" type="line"/>
      <point x="224" y="750" type="line"/>
      <point x="65" y="750" type="line"/>
    </contour>
  </outline>
</glyph>
<glyph name="two.tab" format="2">
  <advance width="600"/>
  <outline>
    <contour>
      <point x="5" y="0" type="line"/>
      <point x="507" y="0" type="line"/>
      <point x="536" y="130" type="line"/>
      <point x="241" y="129" type="line"/>
      <point x="470" y="320" type="line" smooth="yes"/>
      <point x="557" y="392"/>
      <point x="591" y="450"/>
      <point x="591" y="526" type="curve" smooth="yes"/>
      <point x="591" y="635"/>
      <point x="499" y="709"/>
      <point x="364" y="709" type="curve" smooth="yes"/>
      <point x="273" y="709"/>
      <point x="180" y="675"/>
      <point x="104" y="613" type="curve"/>
      <point x="172" y="501" type="line"/>
      <point x="240" y="552"/>
      <point x="296" y="575"/>
      <point x="349" y="575" type="curve" smooth="yes"/>
      <point x="404" y="575"/>
      <point x="440" y="548"/>
      <point x="440" y="505" type="curve" smooth="yes"/>
      <point x="440" y="471"/>
      <point x="423" y="445"/>
      <point x="370" y="400" type="curve" smooth="yes"/>
      <point x="27" y="109" type="line"/>
    </contour>
  </outline>
</glyph>
<glyph name="uni0302" format="2">
  <anchor x="359" y="516" name="_top"/>
  <outline>
    <contour>
      <point x="173" y="599" type="line"/>
      <point x="300" y="599" type="line"/>
      <point x="396" y="682" type="line"/>
      <point x="460" y="599" type="line"/>
      <point x="577" y="599" type="line"/>
      <point x="482" y="750" type="line"/>
      <point x="329" y="750" type="line"/>
    </contour>
  </outline>
</glyph>
